<?xml version="1.0" encoding="UTF-8"?>
<svg version="1.1" xmlns="http://www.w3.org/2000/svg" width="286" height="304">
<path d="M0 0 C6.95465385 5.3740507 10.58171164 13.50278465 14.34716797 21.25024414 C17.47939124 27.67639668 20.84087769 33.96693099 24.25 40.25 C24.8078418 41.28181396 25.36568359 42.31362793 25.94042969 43.37670898 C28.35846599 47.82647861 30.79427504 52.25370445 33.3984375 56.59765625 C33.97174805 57.55937744 33.97174805 57.55937744 34.55664062 58.54052734 C35.54200923 60.17485215 36.54745927 61.79702453 37.5546875 63.41796875 C38.75 66.125 38.75 66.125 38.7265625 68.85546875 C37.75 71.125 37.75 71.125 35.78125 72.3828125 C34.9459375 72.66898437 34.110625 72.95515625 33.25 73.25 C31.89455078 73.72566406 31.89455078 73.72566406 30.51171875 74.2109375 C29.60035156 74.51257813 28.68898437 74.81421875 27.75 75.125 C26.95207031 75.42664063 26.15414062 75.72828125 25.33203125 76.0390625 C20.66768876 77.75708194 16.78946107 78.53638458 11.75 78.125 C8.67898896 76.58949448 7.96838431 73.63577244 6.625 70.625 C6.00699242 69.26931142 5.38848189 67.91385203 4.76953125 66.55859375 C4.4442041 65.84171387 4.11887695 65.12483398 3.78369141 64.38623047 C1.99379502 60.47077928 0.15088506 56.58035666 -1.6875 52.6875 C-2.37381559 51.23052417 -3.06002384 49.77349778 -3.74609375 48.31640625 C-4.24238281 47.26324219 -4.73867187 46.21007813 -5.25 45.125 C-6.24 45.125 -7.23 45.125 -8.25 45.125 C-8.52150879 45.69831055 -8.79301758 46.27162109 -9.07275391 46.86230469 C-9.88192497 48.56967961 -10.69188916 50.27667878 -11.50244141 51.98339844 C-12.42074684 53.91801415 -13.33707499 55.8535696 -14.25146484 57.79003906 C-18.15839582 66.03167733 -18.15839582 66.03167733 -20.25 69.875 C-23.54926881 75.9659578 -25.26236175 80.15095236 -24.25 87.125 C-17.81005129 91.41829914 -10.06752526 90.2233387 -2.76293945 88.92773438 C3.37531948 87.52509379 9.25635676 85.41584317 15.18121338 83.30392456 C19.06299903 81.92082775 22.95616145 80.57032609 26.84765625 79.21484375 C27.6191803 78.9451326 28.39070435 78.67542145 29.18560791 78.39753723 C35.54875761 76.17825803 41.94659968 74.08525026 48.375 72.0625 C55.41924697 69.8437788 62.44287168 67.57359015 69.4453125 65.2265625 C70.19507355 64.97538162 70.94483459 64.72420074 71.71731567 64.46540833 C75.42983106 63.22044955 79.14076801 61.97096965 82.85009766 60.71655273 C84.20733409 60.26018644 85.56459218 59.80388455 86.921875 59.34765625 C88.1190918 58.94297119 89.31630859 58.53828613 90.54980469 58.12133789 C97.42524923 55.98076044 104.10350105 54.95536826 111.0625 57.1875 C115.61787758 60.47160942 117.25955495 64.32670148 118.6875 69.5625 C118.78915375 75.35676401 117.46968234 79.15067239 113.71875 83.45703125 C111.4461706 85.74097355 109.11474374 87.93702281 106.75 90.125 C104.41701993 92.43355096 102.1073778 94.76445047 99.796875 97.09545898 C97.51218242 99.39873251 95.2248813 101.69939685 92.9375 104 C92.16857422 104.77730469 91.39964844 105.55460937 90.60742188 106.35546875 C86.3830691 110.5976458 82.08001325 114.66494094 77.54272461 118.5703125 C75.09223905 120.69542377 72.75283886 122.91647385 70.4375 125.1875 C69.61636719 125.98285156 68.79523438 126.77820313 67.94921875 127.59765625 C63.52331165 132.68391184 61.61253841 137.82534814 61.75390625 144.51953125 C63.86729469 152.16916863 69.84448796 158.0252445 74.91552734 163.95361328 C77.53401678 167.05300709 79.98902174 170.26588612 82.4375 173.5 C83.58798828 174.99660156 83.58798828 174.99660156 84.76171875 176.5234375 C85.41785156 177.38195312 86.07398438 178.24046875 86.75 179.125 C87.33394531 179.85976562 87.91789063 180.59453125 88.51953125 181.3515625 C89.75 183.125 89.75 183.125 89.75 185.125 C90.41 185.125 91.07 185.125 91.75 185.125 C93.44140625 187.20703125 93.44140625 187.20703125 95.3125 189.9375 C95.93253906 190.83082031 96.55257812 191.72414062 97.19140625 192.64453125 C99.89499924 196.94724191 100.43971742 201.13635892 99.75 206.125 C97.72306628 209.96169597 95.64928574 213.12266408 91.75 215.125 C77.65081969 218.64979508 59.78999768 210.16636493 46.28637695 206.11645508 C43.19029822 205.18833883 40.09236597 204.26662508 36.99414062 203.34570312 C27.21559868 200.42963286 17.48275047 197.4321534 7.8190918 194.1550293 C3.88590897 192.8349992 -0.07409056 191.64018543 -4.0625 190.5 C-5.49363416 190.08774114 -6.92462461 189.67498308 -8.35546875 189.26171875 C-9.35779541 188.97240479 -9.35779541 188.97240479 -10.38037109 188.67724609 C-12.89350794 187.93492231 -15.38164328 187.11839527 -17.875 186.3125 C-21.8168943 185.11103222 -25.14456106 184.85725398 -29.25 185.125 C-28.88789533 191.71353856 -26.29776441 195.9960773 -22.8125 201.5 C-21.72328108 203.26650967 -20.63475192 205.03344481 -19.546875 206.80078125 C-18.99708984 207.68588379 -18.44730469 208.57098633 -17.88085938 209.48291016 C-15.38876972 213.52024462 -12.97039291 217.59956771 -10.5625 221.6875 C-10.14105713 222.39503418 -9.71961426 223.10256836 -9.28540039 223.83154297 C-7.66632984 226.57327252 -6.26016936 229.09449193 -5.25 232.125 C-3.23491642 232.85823796 -3.23491642 232.85823796 -1.25 233.125 C0.18569108 230.31285461 1.49147923 227.4708151 2.73828125 224.5703125 C3.11533203 223.70792969 3.49238281 222.84554687 3.88085938 221.95703125 C4.66388576 220.16318898 5.44002425 218.36632313 6.20898438 216.56640625 C8.49522974 211.37496584 10.75149284 207.18221281 14.75 203.125 C17.97643938 202.04952021 18.70838833 202.16361222 21.83984375 203.05078125 C22.62423828 203.27056641 23.40863281 203.49035156 24.21679688 203.71679688 C25.03212891 203.95462891 25.84746094 204.19246094 26.6875 204.4375 C27.90469727 204.7768457 27.90469727 204.7768457 29.14648438 205.12304688 C32.8909766 206.18895237 36.29650474 207.30039282 39.75 209.125 C39.94834846 212.78272055 39.60838747 214.99894764 37.80078125 218.1796875 C37.37104004 218.94821045 36.94129883 219.7167334 36.49853516 220.50854492 C36.02464355 221.3307251 35.55075195 222.15290527 35.0625 223 C34.57571777 223.86407471 34.08893555 224.72814941 33.58740234 225.6184082 C32.53740804 227.47921853 31.48253553 229.33728288 30.42333984 231.19287109 C28.70580348 234.20244386 27.00173816 237.2193104 25.30078125 240.23828125 C22.60703548 245.01744629 19.90297973 249.79065123 17.19458008 254.56152344 C15.39119227 257.76172151 13.62353085 260.98095521 11.86645508 264.20678711 C8.85728959 269.37691902 5.54587519 273.11873551 -0.25 275.125 C-5.85608596 275.95515167 -9.61977999 275.39244594 -14.57006836 272.38110352 C-17.30530035 270.33594023 -19.04359569 267.73720987 -20.8125 264.875 C-21.22685303 264.23006592 -21.64120605 263.58513184 -22.06811523 262.9206543 C-26.43015789 256.03577362 -30.48742839 248.96133839 -34.56445312 241.90551758 C-39.02366332 234.19149281 -43.57036851 226.53568093 -48.18893433 218.91635132 C-48.92954076 217.69437182 -49.66908865 216.47175005 -50.40750122 215.2484436 C-55.9499249 204.3748634 -55.9499249 204.3748634 -64.25 196.125 C-64.25 195.465 -64.25 194.805 -64.25 194.125 C-71.17371179 192.20524355 -77.1890396 192.40675251 -83.8125 195.28515625 C-85.38547852 195.96529785 -85.38547852 195.96529785 -86.99023438 196.65917969 C-90.1629774 198.08586851 -93.31859468 199.54370234 -96.46875 201.01953125 C-97.50386719 201.49970703 -98.53898437 201.97988281 -99.60546875 202.47460938 C-101.70935383 203.4533733 -103.80577463 204.44833754 -105.89453125 205.45898438 C-113.01013501 208.71550291 -119.3953269 210.39305005 -127.25 209.125 C-130.375 206.875 -130.375 206.875 -132.25 204.125 C-132.8996875 203.196875 -132.8996875 203.196875 -133.5625 202.25 C-134.90829139 198.09028117 -134.94612433 194.81323853 -133.2578125 190.71875 C-130.28194601 185.00239629 -126.6969555 179.70462463 -123 174.4375 C-122.56381348 173.81286865 -122.12762695 173.1882373 -121.67822266 172.54467773 C-120.58837959 171.03190101 -119.42500534 169.57262349 -118.25 168.125 C-117.59 168.125 -116.93 168.125 -116.25 168.125 C-115.97003174 167.53944336 -115.69006348 166.95388672 -115.40161133 166.35058594 C-114.32798266 164.27570807 -113.16156702 162.4278142 -111.82421875 160.515625 C-111.35693359 159.84273437 -110.88964844 159.16984375 -110.40820312 158.4765625 C-109.92287109 157.78304687 -109.43753906 157.08953125 -108.9375 156.375 C-107.02422935 153.63655003 -105.12654692 150.88876009 -103.25 148.125 C-102.53529541 147.08061768 -102.53529541 147.08061768 -101.80615234 146.01513672 C-98.59927407 141.15146695 -97.33120735 137.8178065 -97.65625 131.91015625 C-99.78963952 121.90287513 -109.97271693 113.82805132 -117.25 107.125 C-117.91 106.795 -118.57 106.465 -119.25 106.125 C-119.25 105.465 -119.25 104.805 -119.25 104.125 C-120.735 103.63 -120.735 103.63 -122.25 103.125 C-122.25 102.465 -122.25 101.805 -122.25 101.125 C-122.91 101.125 -123.57 101.125 -124.25 101.125 C-125.6953125 99.62109375 -125.6953125 99.62109375 -127.375 97.5625 C-129.84014761 94.65239836 -132.3336023 92.08180973 -135.25 89.625 C-146.32841899 80.07985147 -146.32841899 80.07985147 -147.4375 73.625 C-147.6144883 68.75360769 -146.12007637 65.01879788 -143.25 61.125 C-139.98246834 58.22052741 -137.0029801 57.59466888 -132.640625 57.77441406 C-121.11525603 59.46461319 -109.57812152 64.72544488 -98.58496094 68.56958008 C-96.48467616 69.30306195 -94.38304332 70.03257301 -92.28125 70.76171875 C-91.04955078 71.19186279 -89.81785156 71.62200684 -88.54882812 72.06518555 C-81.12135575 74.45140946 -73.03586216 75.71904723 -65.6875 72.625 C-64.883125 72.13 -64.07875 71.635 -63.25 71.125 C-62.59 71.125 -61.93 71.125 -61.25 71.125 C-60.96729248 70.54443848 -60.68458496 69.96387695 -60.39331055 69.36572266 C-59.32529107 67.27255956 -58.17901843 65.27972955 -56.95703125 63.2734375 C-56.27036377 62.13986816 -56.27036377 62.13986816 -55.56982422 60.98339844 C-55.07240723 60.16387695 -54.57499023 59.34435547 -54.0625 58.5 C-49.14011081 50.35311995 -44.35793045 42.13318072 -39.625 33.875 C-35.3697681 26.47302385 -31.10706716 19.08006198 -26.625 11.8125 C-26.24778809 11.19149414 -25.87057617 10.57048828 -25.48193359 9.93066406 C-19.07345645 -0.31019215 -11.69044288 -3.14742693 0 0 Z M16.125 120.8125 C10.11453667 122.99724239 4.09248582 124.95300207 -2.0625 126.6875 C-14.91099609 129.76816531 -14.91099609 129.76816531 -25.25 137.125 C-25.91721536 140.03940699 -25.91721536 140.03940699 -25.25 143.125 C-23.10484511 145.85389272 -23.10484511 145.85389272 -20.25 148.125 C-19.50008789 148.78064941 -18.75017578 149.43629883 -17.97753906 150.11181641 C-14.98637249 152.31958221 -12.29257693 153.45989172 -8.796875 154.7109375 C-8.18328125 154.93352737 -7.5696875 155.15611725 -6.9375 155.38545227 C-4.96155786 156.09967094 -2.98105114 156.80009208 -1 157.5 C0.35802649 157.98725997 1.71577337 158.47529988 3.07324219 158.96411133 C5.74344572 159.92367438 8.41557502 160.8775099 11.08984375 161.82568359 C14.20922638 162.93303114 17.32444985 164.05079645 20.4375 165.17578125 C21.95808755 165.72203883 23.47889569 166.26768304 25 166.8125 C25.67708008 167.05597168 26.35416016 167.29944336 27.05175781 167.55029297 C30.32141772 168.74171917 30.32141772 168.74171917 33.75 169.125 C32.72058189 165.46484674 31.03911675 163.22408552 28.5 160.5 C21.80722156 153.14914502 17.35227104 144.75653714 17.46875 134.75390625 C18.19248344 127.98900898 22.33691774 123.02842474 26.75 118.125 C22.86454668 118.125 19.71781795 119.48053043 16.125 120.8125 Z " fill="#E8EEFC" transform="translate(159.25,15.875)"/>
<path d="M0 0 C6.95465385 5.3740507 10.58171164 13.50278465 14.34716797 21.25024414 C17.47939124 27.67639668 20.84087769 33.96693099 24.25 40.25 C24.8078418 41.28181396 25.36568359 42.31362793 25.94042969 43.37670898 C28.35846599 47.82647861 30.79427504 52.25370445 33.3984375 56.59765625 C33.97174805 57.55937744 33.97174805 57.55937744 34.55664062 58.54052734 C35.54200923 60.17485215 36.54745927 61.79702453 37.5546875 63.41796875 C38.75 66.125 38.75 66.125 38.7265625 68.85546875 C37.75 71.125 37.75 71.125 35.78125 72.3828125 C34.9459375 72.66898437 34.110625 72.95515625 33.25 73.25 C31.89455078 73.72566406 31.89455078 73.72566406 30.51171875 74.2109375 C29.60035156 74.51257813 28.68898437 74.81421875 27.75 75.125 C26.95207031 75.42664063 26.15414062 75.72828125 25.33203125 76.0390625 C20.66768876 77.75708194 16.78946107 78.53638458 11.75 78.125 C8.67898896 76.58949448 7.96838431 73.63577244 6.625 70.625 C6.00699242 69.26931142 5.38848189 67.91385203 4.76953125 66.55859375 C4.4442041 65.84171387 4.11887695 65.12483398 3.78369141 64.38623047 C1.99379502 60.47077928 0.15088506 56.58035666 -1.6875 52.6875 C-2.37381559 51.23052417 -3.06002384 49.77349778 -3.74609375 48.31640625 C-4.24238281 47.26324219 -4.73867187 46.21007813 -5.25 45.125 C-6.24 45.125 -7.23 45.125 -8.25 45.125 C-8.52150879 45.69831055 -8.79301758 46.27162109 -9.07275391 46.86230469 C-9.88192497 48.56967961 -10.69188916 50.27667878 -11.50244141 51.98339844 C-12.42074684 53.91801415 -13.33707499 55.8535696 -14.25146484 57.79003906 C-18.15839582 66.03167733 -18.15839582 66.03167733 -20.25 69.875 C-23.54926881 75.9659578 -25.26236175 80.15095236 -24.25 87.125 C-17.81005129 91.41829914 -10.06752526 90.2233387 -2.76293945 88.92773438 C3.37531948 87.52509379 9.25635676 85.41584317 15.18121338 83.30392456 C19.06299903 81.92082775 22.95616145 80.57032609 26.84765625 79.21484375 C27.6191803 78.9451326 28.39070435 78.67542145 29.18560791 78.39753723 C35.54875761 76.17825803 41.94659968 74.08525026 48.375 72.0625 C55.41924697 69.8437788 62.44287168 67.57359015 69.4453125 65.2265625 C70.19507355 64.97538162 70.94483459 64.72420074 71.71731567 64.46540833 C75.42983106 63.22044955 79.14076801 61.97096965 82.85009766 60.71655273 C84.20733409 60.26018644 85.56459218 59.80388455 86.921875 59.34765625 C88.1190918 58.94297119 89.31630859 58.53828613 90.54980469 58.12133789 C97.42524923 55.98076044 104.10350105 54.95536826 111.0625 57.1875 C115.61787758 60.47160942 117.25955495 64.32670148 118.6875 69.5625 C118.78915375 75.35676401 117.46968234 79.15067239 113.71875 83.45703125 C111.4461706 85.74097355 109.11474374 87.93702281 106.75 90.125 C104.41701993 92.43355096 102.1073778 94.76445047 99.796875 97.09545898 C97.51218242 99.39873251 95.2248813 101.69939685 92.9375 104 C92.16857422 104.77730469 91.39964844 105.55460937 90.60742188 106.35546875 C86.3830691 110.5976458 82.08001325 114.66494094 77.54272461 118.5703125 C75.09223905 120.69542377 72.75283886 122.91647385 70.4375 125.1875 C69.61636719 125.98285156 68.79523438 126.77820313 67.94921875 127.59765625 C63.52331165 132.68391184 61.61253841 137.82534814 61.75390625 144.51953125 C63.86729469 152.16916863 69.84448796 158.0252445 74.91552734 163.95361328 C77.53401678 167.05300709 79.98902174 170.26588612 82.4375 173.5 C83.58798828 174.99660156 83.58798828 174.99660156 84.76171875 176.5234375 C85.41785156 177.38195312 86.07398438 178.24046875 86.75 179.125 C87.33394531 179.85976562 87.91789063 180.59453125 88.51953125 181.3515625 C89.75 183.125 89.75 183.125 89.75 185.125 C90.41 185.125 91.07 185.125 91.75 185.125 C93.44140625 187.20703125 93.44140625 187.20703125 95.3125 189.9375 C95.93253906 190.83082031 96.55257812 191.72414062 97.19140625 192.64453125 C99.89499924 196.94724191 100.43971742 201.13635892 99.75 206.125 C97.72306628 209.96169597 95.64928574 213.12266408 91.75 215.125 C77.65081969 218.64979508 59.78999768 210.16636493 46.28637695 206.11645508 C43.19029822 205.18833883 40.09236597 204.26662508 36.99414062 203.34570312 C27.21559868 200.42963286 17.48275047 197.4321534 7.8190918 194.1550293 C3.88590897 192.8349992 -0.07409056 191.64018543 -4.0625 190.5 C-5.49363416 190.08774114 -6.92462461 189.67498308 -8.35546875 189.26171875 C-9.35779541 188.97240479 -9.35779541 188.97240479 -10.38037109 188.67724609 C-12.89350794 187.93492231 -15.38164328 187.11839527 -17.875 186.3125 C-21.8168943 185.11103222 -25.14456106 184.85725398 -29.25 185.125 C-28.88789533 191.71353856 -26.29776441 195.9960773 -22.8125 201.5 C-21.72328108 203.26650967 -20.63475192 205.03344481 -19.546875 206.80078125 C-18.99708984 207.68588379 -18.44730469 208.57098633 -17.88085938 209.48291016 C-15.38876972 213.52024462 -12.97039291 217.59956771 -10.5625 221.6875 C-10.14105713 222.39503418 -9.71961426 223.10256836 -9.28540039 223.83154297 C-7.66632984 226.57327252 -6.26016936 229.09449193 -5.25 232.125 C-3.23491642 232.85823796 -3.23491642 232.85823796 -1.25 233.125 C0.18569108 230.31285461 1.49147923 227.4708151 2.73828125 224.5703125 C3.11533203 223.70792969 3.49238281 222.84554687 3.88085938 221.95703125 C4.66388576 220.16318898 5.44002425 218.36632313 6.20898438 216.56640625 C8.49522974 211.37496584 10.75149284 207.18221281 14.75 203.125 C17.97643938 202.04952021 18.70838833 202.16361222 21.83984375 203.05078125 C22.62423828 203.27056641 23.40863281 203.49035156 24.21679688 203.71679688 C25.03212891 203.95462891 25.84746094 204.19246094 26.6875 204.4375 C27.90469727 204.7768457 27.90469727 204.7768457 29.14648438 205.12304688 C32.8909766 206.18895237 36.29650474 207.30039282 39.75 209.125 C39.94834846 212.78272055 39.60838747 214.99894764 37.80078125 218.1796875 C37.37104004 218.94821045 36.94129883 219.7167334 36.49853516 220.50854492 C36.02464355 221.3307251 35.55075195 222.15290527 35.0625 223 C34.57571777 223.86407471 34.08893555 224.72814941 33.58740234 225.6184082 C32.53740804 227.47921853 31.48253553 229.33728288 30.42333984 231.19287109 C28.70580348 234.20244386 27.00173816 237.2193104 25.30078125 240.23828125 C22.60703548 245.01744629 19.90297973 249.79065123 17.19458008 254.56152344 C15.39119227 257.76172151 13.62353085 260.98095521 11.86645508 264.20678711 C8.85728959 269.37691902 5.54587519 273.11873551 -0.25 275.125 C-5.85608596 275.95515167 -9.61977999 275.39244594 -14.57006836 272.38110352 C-17.30530035 270.33594023 -19.04359569 267.73720987 -20.8125 264.875 C-21.22685303 264.23006592 -21.64120605 263.58513184 -22.06811523 262.9206543 C-26.43015789 256.03577362 -30.48742839 248.96133839 -34.56445312 241.90551758 C-39.02366332 234.19149281 -43.57036851 226.53568093 -48.18893433 218.91635132 C-48.92954076 217.69437182 -49.66908865 216.47175005 -50.40750122 215.2484436 C-55.9499249 204.3748634 -55.9499249 204.3748634 -64.25 196.125 C-64.25 195.465 -64.25 194.805 -64.25 194.125 C-71.17371179 192.20524355 -77.1890396 192.40675251 -83.8125 195.28515625 C-85.38547852 195.96529785 -85.38547852 195.96529785 -86.99023438 196.65917969 C-90.1629774 198.08586851 -93.31859468 199.54370234 -96.46875 201.01953125 C-97.50386719 201.49970703 -98.53898437 201.97988281 -99.60546875 202.47460938 C-101.70935383 203.4533733 -103.80577463 204.44833754 -105.89453125 205.45898438 C-113.01013501 208.71550291 -119.3953269 210.39305005 -127.25 209.125 C-130.375 206.875 -130.375 206.875 -132.25 204.125 C-132.8996875 203.196875 -132.8996875 203.196875 -133.5625 202.25 C-134.90829139 198.09028117 -134.94612433 194.81323853 -133.2578125 190.71875 C-130.28194601 185.00239629 -126.6969555 179.70462463 -123 174.4375 C-122.56381348 173.81286865 -122.12762695 173.1882373 -121.67822266 172.54467773 C-120.58837959 171.03190101 -119.42500534 169.57262349 -118.25 168.125 C-117.59 168.125 -116.93 168.125 -116.25 168.125 C-115.97003174 167.53944336 -115.69006348 166.95388672 -115.40161133 166.35058594 C-114.32798266 164.27570807 -113.16156702 162.4278142 -111.82421875 160.515625 C-111.35693359 159.84273437 -110.88964844 159.16984375 -110.40820312 158.4765625 C-109.92287109 157.78304687 -109.43753906 157.08953125 -108.9375 156.375 C-107.02422935 153.63655003 -105.12654692 150.88876009 -103.25 148.125 C-102.53529541 147.08061768 -102.53529541 147.08061768 -101.80615234 146.01513672 C-98.59927407 141.15146695 -97.33120735 137.8178065 -97.65625 131.91015625 C-99.78963952 121.90287513 -109.97271693 113.82805132 -117.25 107.125 C-117.91 106.795 -118.57 106.465 -119.25 106.125 C-119.25 105.465 -119.25 104.805 -119.25 104.125 C-120.735 103.63 -120.735 103.63 -122.25 103.125 C-122.25 102.465 -122.25 101.805 -122.25 101.125 C-122.91 101.125 -123.57 101.125 -124.25 101.125 C-125.6953125 99.62109375 -125.6953125 99.62109375 -127.375 97.5625 C-129.84014761 94.65239836 -132.3336023 92.08180973 -135.25 89.625 C-146.32841899 80.07985147 -146.32841899 80.07985147 -147.4375 73.625 C-147.6144883 68.75360769 -146.12007637 65.01879788 -143.25 61.125 C-139.98246834 58.22052741 -137.0029801 57.59466888 -132.640625 57.77441406 C-121.11525603 59.46461319 -109.57812152 64.72544488 -98.58496094 68.56958008 C-96.48467616 69.30306195 -94.38304332 70.03257301 -92.28125 70.76171875 C-91.04955078 71.19186279 -89.81785156 71.62200684 -88.54882812 72.06518555 C-81.12135575 74.45140946 -73.03586216 75.71904723 -65.6875 72.625 C-64.883125 72.13 -64.07875 71.635 -63.25 71.125 C-62.59 71.125 -61.93 71.125 -61.25 71.125 C-60.96729248 70.54443848 -60.68458496 69.96387695 -60.39331055 69.36572266 C-59.32529107 67.27255956 -58.17901843 65.27972955 -56.95703125 63.2734375 C-56.27036377 62.13986816 -56.27036377 62.13986816 -55.56982422 60.98339844 C-55.07240723 60.16387695 -54.57499023 59.34435547 -54.0625 58.5 C-49.14011081 50.35311995 -44.35793045 42.13318072 -39.625 33.875 C-35.3697681 26.47302385 -31.10706716 19.08006198 -26.625 11.8125 C-26.24778809 11.19149414 -25.87057617 10.57048828 -25.48193359 9.93066406 C-19.07345645 -0.31019215 -11.69044288 -3.14742693 0 0 Z M-19.25 5.125 C-22.12067067 9.06638453 -24.44214328 13.27501059 -26.79492188 17.53515625 C-29.428596 22.22274267 -32.20643867 26.82578791 -34.9602356 31.44348145 C-36.69975956 34.36122132 -38.43528265 37.28131969 -40.16796875 40.203125 C-40.51133774 40.78213562 -40.85470673 41.36114624 -41.20848083 41.95770264 C-43.48209224 45.80149696 -45.71341863 49.66756488 -47.92578125 53.546875 C-48.4990918 54.54323975 -49.07240234 55.53960449 -49.66308594 56.56616211 C-50.72806747 58.42010643 -51.78287955 60.27994704 -52.82519531 62.14672852 C-56.49877084 68.51036881 -60.46924715 73.39215494 -67.25 76.5 C-84.91952079 80.18115017 -107.57811439 68.78938466 -123.640625 62.37890625 C-128.92209324 60.54411046 -133.7320988 60.28796933 -139.25 61.125 C-142.84556417 63.71715091 -143.4771561 66.35726409 -144.1875 70.5625 C-144.4629417 74.95507025 -143.83291312 77.44630556 -141.25 81.125 C-138.72576638 83.95317195 -136.16015046 86.69060662 -133.25 89.125 C-132.59 89.125 -131.93 89.125 -131.25 89.125 C-131.25 89.785 -131.25 90.445 -131.25 91.125 C-129.77877584 92.61044794 -129.77877584 92.61044794 -127.8359375 94.16015625 C-122.01272286 99.10950373 -116.76266052 104.59860524 -111.43359375 110.06835938 C-110.66402344 110.84888672 -109.89445312 111.62941406 -109.1015625 112.43359375 C-108.06249756 113.49791626 -108.06249756 113.49791626 -107.00244141 114.58374023 C-105.38866268 116.34513776 -105.38866268 116.34513776 -103.25 116.125 C-102.97285156 116.70121094 -102.69570312 117.27742188 -102.41015625 117.87109375 C-100.91252211 120.78063886 -99.1469858 123.47713768 -97.37109375 126.22265625 C-94.75526999 130.66135371 -94.45813876 135.12540552 -95.25 140.125 C-98.18042814 146.97012221 -103.19211897 152.83239503 -107.68359375 158.70703125 C-111.22391423 163.37299209 -114.55885332 168.18575551 -117.91259766 172.98657227 C-121.26459844 177.77295713 -124.72103752 182.46775703 -128.25 187.125 C-131.06385362 190.87680483 -131.7251224 193.59810136 -131.54296875 198.1953125 C-131.11045852 201.04411321 -130.02720667 202.88703604 -128.25 205.125 C-124.43357894 207.66928071 -121.65748268 207.82320647 -117.25 207.125 C-112.85241514 205.6758714 -108.66213657 203.82561927 -104.4375 201.9375 C-102.76977539 201.21336914 -102.76977539 201.21336914 -101.06835938 200.47460938 C-94.88523089 197.77921398 -88.75020703 194.99091877 -82.65039062 192.11206055 C-77.49521377 189.99220904 -72.57134525 189.47073656 -67.1875 191 C-58.39403349 195.03376397 -53.30990789 204.80790369 -48.75 212.875 C-47.61545047 214.83904283 -46.4800389 216.80258796 -45.34375 218.765625 C-44.8075 219.69826172 -44.27125 220.63089844 -43.71875 221.59179688 C-41.95102192 224.64065767 -40.11640456 227.63558931 -38.25 230.625 C-35.81697051 234.53541046 -33.44868042 238.47496993 -31.12109375 242.44921875 C-30.55583984 243.4134375 -29.99058594 244.37765625 -29.40820312 245.37109375 C-28.29509568 247.27386312 -27.18548062 249.17868168 -26.08007812 251.0859375 C-19.54759971 263.40774031 -19.54759971 263.40774031 -9.25 272.125 C-3.66292683 272.65710221 0.01760109 272.41710359 4.75 269.125 C10.24015917 262.99498773 13.97574795 255.62140382 17.875 248.4375 C19.18730661 246.03622302 20.50344777 243.637061 21.8203125 241.23828125 C22.14807678 240.64000519 22.47584106 240.04172913 22.8135376 239.42532349 C24.96328988 235.51425078 27.1736495 231.64412956 29.4296875 227.79296875 C29.99155762 226.83156982 30.55342773 225.8701709 31.13232422 224.87963867 C32.19100736 223.07687352 33.25745558 221.27864051 34.33251953 219.4855957 C34.80028809 218.68597412 35.26805664 217.88635254 35.75 217.0625 C36.1625 216.37027344 36.575 215.67804688 37 214.96484375 C38.05366721 212.95109337 38.05366721 212.95109337 36.75 210.125 C34.15025989 209.07145235 31.68048219 208.21852078 29 207.4375 C28.28328125 207.21255859 27.5665625 206.98761719 26.828125 206.75585938 C23.03969642 205.61027757 19.75187202 204.83352507 15.75 205.125 C5.99545667 219.49843894 5.99545667 219.49843894 0.75 235.125 C-1.5 235.4375 -1.5 235.4375 -4.25 235.125 C-8.51469468 230.99787611 -11.27040976 225.22016285 -14.25 220.125 C-15.46125962 218.06924497 -16.673973 216.01435129 -17.88671875 213.95947266 C-18.75528033 212.48415691 -19.62116012 211.00725908 -20.484375 209.52880859 C-22.4314708 206.19462897 -24.39019966 202.87586103 -26.44921875 199.609375 C-32.39976794 190.00159172 -32.39976794 190.00159172 -31.25 184.125 C-29.25 182.125 -29.25 182.125 -27.42582703 182.04846191 C-21.58099195 182.77702098 -16.17992387 184.158404 -10.58203125 185.96875 C-9.67706406 186.25378891 -8.77209686 186.53882782 -7.83970642 186.83250427 C-5.90978171 187.441291 -3.98101646 188.05376385 -2.05334473 188.66964722 C1.99453751 189.96264499 6.04821516 191.23698629 10.10165405 192.51243591 C12.13239991 193.15162366 14.16285774 193.79172723 16.19302368 194.43275452 C27.88908892 198.12438248 39.62338317 201.67740454 51.390625 205.13574219 C53.68378654 205.81102493 55.97539534 206.49159744 58.265625 207.17675781 C61.67315687 208.19428469 65.08558145 209.19336135 68.5 210.1875 C69.49418945 210.48712646 70.48837891 210.78675293 71.51269531 211.09545898 C78.01644831 212.95678178 85.39877466 214.8986079 91.92480469 212.23852539 C94.62567475 210.59076344 95.48976105 209.02354958 96.75 206.125 C98.0340371 196.49472172 92.57940959 189.99963619 87.08203125 182.55859375 C86.42267578 181.84896484 86.42267578 181.84896484 85.75 181.125 C85.09 181.125 84.43 181.125 83.75 181.125 C83.38068359 180.04412109 83.38068359 180.04412109 83.00390625 178.94140625 C81.60727052 175.80441447 79.91706944 173.66956267 77.6875 171.0625 C59.24815959 149.0484894 59.24815959 149.0484894 59.75 139.125 C61.53605797 132.15819109 65.83332527 127.17623635 70.75 122.125 C71.33136719 121.5165625 71.91273438 120.908125 72.51171875 120.28125 C75.83740531 116.87335546 79.30280911 113.70829396 82.9765625 110.6796875 C85.34587963 108.60262094 87.52486027 106.3559157 89.75 104.125 C91.55343561 102.35419289 93.35819044 100.58472859 95.1640625 98.81640625 C96.70689513 97.29569101 98.24829199 95.77353686 99.7890625 94.25073242 C100.8472787 93.20766618 101.90816263 92.16729958 102.97167969 91.12963867 C104.52219745 89.61570777 106.06264217 88.0921138 107.6015625 86.56640625 C108.51760254 85.66607666 109.43364258 84.76574707 110.37744141 83.83813477 C114.36063412 79.28316249 116.36935795 75.08798777 116.09375 69.08203125 C115.48797485 65.63324317 114.07624508 63.68983432 111.75 61.125 C106.70891202 58.17643911 103.27424089 57.89162144 97.75 59.125 C93.48632338 60.28810109 89.27626768 61.60612811 85.0625 62.9375 C83.78956763 63.33607269 82.51661795 63.73459011 81.24365234 64.13305664 C69.55600309 67.80863681 57.9385341 71.69388147 46.32250977 75.58862305 C36.73493738 78.80264719 27.13800441 81.98441301 17.51702881 85.09719849 C16.19171897 85.52612854 14.86671691 85.95601096 13.54205322 86.38693237 C-13.89759321 95.30762049 -13.89759321 95.30762049 -25.25 90.125 C-27.76183829 86.56656243 -27.2553408 83.43024782 -26.6803894 79.23864746 C-26.0089496 75.94119862 -24.64934123 73.14642786 -23.16015625 70.140625 C-22.70327675 69.20630646 -22.70327675 69.20630646 -22.23716736 68.25311279 C-21.27317081 66.28814431 -20.29324432 64.33165381 -19.3125 62.375 C-18.65843075 61.04870642 -18.00542672 59.72188696 -17.35351562 58.39453125 C-15.6655911 54.96468804 -13.96112345 51.54333832 -12.25 48.125 C-11.90767334 47.35768555 -11.56534668 46.59037109 -11.21264648 45.79980469 C-9.7924804 43.32901105 -7.88289486 42.95644048 -5.25 42.125 C-0.55959393 49.1606091 3.09141363 56.63347323 6.80859375 64.20996094 C8.10890016 66.85508633 9.42886175 69.49022996 10.75 72.125 C11.41666667 73.45833333 12.08333333 74.79166667 12.75 76.125 C20.56200241 74.78479191 28.34378329 72.98471565 35.75 70.125 C36.08 69.465 36.41 68.805 36.75 68.125 C35.57182455 65.36485394 35.57182455 65.36485394 33.8125 62.2265625 C33.49474609 61.63636322 33.17699219 61.04616394 32.84960938 60.43807983 C31.82384313 58.5379191 30.786876 56.64411672 29.75 54.75 C29.0813414 53.51209113 28.41336509 52.27381345 27.74609375 51.03515625 C24.58282651 45.18543227 21.34600466 39.39220788 17.97265625 33.66015625 C15.51649892 29.48601192 13.27089119 25.30792212 11.1875 20.9375 C6.1266165 10.19664374 6.1266165 10.19664374 -2.25 2.125 C-8.50210889 0.16240191 -14.33488842 0.6610803 -19.25 5.125 Z " fill="#FDFEFE" transform="translate(159.25,15.875)"/>
<path d="M0 0 C0.234375 2.3203125 0.234375 2.3203125 0 5 C-1.609375 6.5546875 -1.609375 6.5546875 -3.75 7.875 C-9.26290419 11.6998822 -11.33249769 15.24099046 -12.9375 21.875 C-13.70322277 31.81025297 -7.31205076 39.66511003 -1.609375 47.12890625 C-1.19896973 47.66668701 -0.78856445 48.20446777 -0.36572266 48.75854492 C0.82717876 50.31269688 2.03440378 51.85582265 3.2421875 53.3984375 C5 56 5 56 5 59 C0.81503106 60.39498965 -1.94074214 58.78450498 -5.875 57.25 C-6.68638428 56.94070557 -7.49776855 56.63141113 -8.33374023 56.31274414 C-10.17500208 55.61081916 -12.01500668 54.9055908 -13.85400391 54.19775391 C-16.71092251 53.11005853 -19.57569527 52.04643867 -22.44573975 50.993927 C-25.0152099 50.05081345 -27.58139452 49.09894073 -30.14727783 48.14611816 C-32.01973563 47.4533225 -33.89533613 46.76903969 -35.77099609 46.08496094 C-56.1187979 38.46807731 -56.1187979 38.46807731 -60 30 C-60.5625 26.9375 -60.5625 26.9375 -60 24 C-54.45418743 16.721121 -45.27631521 14.23682328 -36.8828125 11.58203125 C-35.9444455 11.27931808 -35.00607849 10.97660492 -34.03927612 10.66471863 C-31.06975213 9.70793662 -28.09754031 8.75986461 -25.125 7.8125 C-22.13160447 6.85273955 -19.13879745 5.89118134 -16.14645386 4.92814636 C-14.29084083 4.33155977 -12.43451709 3.73717836 -10.5774231 3.1452179 C-9.74250336 2.87791367 -8.90758362 2.61060944 -8.04736328 2.33520508 C-7.31204376 2.10078201 -6.57672424 1.86635895 -5.81912231 1.62483215 C-1.08862243 0 -1.08862243 0 0 0 Z M-16.625 7.6875 C-22.63546333 9.87224239 -28.65751418 11.82800207 -34.8125 13.5625 C-47.66099609 16.64316531 -47.66099609 16.64316531 -58 24 C-58.66721536 26.91440699 -58.66721536 26.91440699 -58 30 C-55.85484511 32.72889272 -55.85484511 32.72889272 -53 35 C-52.25008789 35.65564941 -51.50017578 36.31129883 -50.72753906 36.98681641 C-47.73637249 39.19458221 -45.04257693 40.33489172 -41.546875 41.5859375 C-40.93328125 41.80852737 -40.3196875 42.03111725 -39.6875 42.26045227 C-37.71155786 42.97467094 -35.73105114 43.67509208 -33.75 44.375 C-32.39197351 44.86225997 -31.03422663 45.35029988 -29.67675781 45.83911133 C-27.00655428 46.79867438 -24.33442498 47.7525099 -21.66015625 48.70068359 C-18.54077362 49.80803114 -15.42555015 50.92579645 -12.3125 52.05078125 C-10.79191245 52.59703883 -9.27110431 53.14268304 -7.75 53.6875 C-7.07291992 53.93097168 -6.39583984 54.17444336 -5.69824219 54.42529297 C-2.42858228 55.61671917 -2.42858228 55.61671917 1 56 C-0.02941811 52.33984674 -1.71088325 50.09908552 -4.25 47.375 C-10.94277844 40.02414502 -15.39772896 31.63153714 -15.28125 21.62890625 C-14.55751656 14.86400898 -10.41308226 9.90342474 -6 5 C-9.88545332 5 -13.03218205 6.35553043 -16.625 7.6875 Z " fill="#FDFEFE" transform="translate(192,129)"/>
<path d="M0 0 C2.475 0.99 2.475 0.99 5 2 C2.15240273 5.04398329 0.30153445 6.88998401 -4.04296875 7.09765625 C-4.75066406 7.08605469 -5.45835937 7.07445312 -6.1875 7.0625 C-8.0746875 7.0315625 -8.0746875 7.0315625 -10 7 C-10 6.67 -10 6.34 -10 6 C-8.02 6 -6.04 6 -4 6 C-4 5.34 -4 4.68 -4 4 C-3.01 4 -2.02 4 -1 4 C-2.32 3.01 -3.64 2.02 -5 1 C-2.03 1.495 -2.03 1.495 1 2 C0.67 1.34 0.34 0.68 0 0 Z " fill="#E0E5F4" transform="translate(160,281)"/>
<path d="M0 0 C1.98 0.99 3.96 1.98 6 3 C5.67 3.99 5.34 4.98 5 6 C2.75 6.75 2.75 6.75 0 7 C-2.3125 5.0625 -2.3125 5.0625 -4 3 C-3.01 2.67 -2.02 2.34 -1 2 C-0.67 1.34 -0.34 0.68 0 0 Z " fill="#E2E8F7" transform="translate(148,280)"/>
<path d="M0 0 C0 0.66 0 1.32 0 2 C-5.28497409 3.67357513 -5.28497409 3.67357513 -8 4 C-10.5 2.625 -10.5 2.625 -12 1 C-7.53763531 -0.80619523 -4.68965706 -1.11658501 0 0 Z M-14 2 C-12 3 -12 3 -12 3 Z " fill="#E2E8F7" transform="translate(250,80)"/>
<path d="M0 0 C-0.63808594 0.26554687 -1.27617187 0.53109375 -1.93359375 0.8046875 C-2.75988281 1.15789062 -3.58617187 1.51109375 -4.4375 1.875 C-5.26121094 2.22304687 -6.08492187 2.57109375 -6.93359375 2.9296875 C-9.15746715 3.8244937 -9.15746715 3.8244937 -10 6 C-10.66 6 -11.32 6 -12 6 C-11.77734375 4.11328125 -11.77734375 4.11328125 -11 2 C-9.00390625 0.91796875 -9.00390625 0.91796875 -6.5625 0.1875 C-5.75941406 -0.06644531 -4.95632812 -0.32039063 -4.12890625 -0.58203125 C-2 -1 -2 -1 0 0 Z " fill="#C4CAD8" transform="translate(204,127)"/>
<path d="M0 0 C1.65 0 3.3 0 5 0 C5 0.66 5 1.32 5 2 C5.66 2.33 6.32 2.66 7 3 C5.35 3.66 3.7 4.32 2 5 C2 4.34 2 3.68 2 3 C1.34 2.67 0.68 2.34 0 2 C0 1.34 0 0.68 0 0 Z " fill="#D8DEEC" transform="translate(147,54)"/>
</svg>
