<?xml version="1.0" encoding="UTF-8"?>
<svg version="1.1" xmlns="http://www.w3.org/2000/svg" width="873" height="304">
<path d="M0 0 C5.66313119 3.86122581 8.89996608 9.47903195 12.125 15.375 C12.70580322 16.42059082 12.70580322 16.42059082 13.29833984 17.48730469 C16.39029789 23.1009461 19.23966233 28.81499425 22.06640625 34.56640625 C24.22688436 38.81217181 26.61829242 42.89404725 29.05078125 46.98828125 C31.73771414 51.55297873 34.24638621 56.20814287 36.75 60.875 C37.389375 62.009375 38.02875 63.14375 38.6875 64.3125 C39.75 66.875 39.75 66.875 39.875 69.0625 C37.99212948 72.09601361 34.98747364 72.78870719 31.75 73.875 C30.19345703 74.40673828 30.19345703 74.40673828 28.60546875 74.94921875 C17.87834244 78.44319703 17.87834244 78.44319703 12.75 77.875 C8.19208829 72.14839298 5.4911854 65.22861078 2.46484375 58.59765625 C0.3455132 53.96362425 -1.93298235 49.41293779 -4.25 44.875 C-6.18527362 45.04559727 -6.18527362 45.04559727 -8.25 45.875 C-9.64045552 47.78111963 -9.64045552 47.78111963 -10.65234375 50.21484375 C-11.06806641 51.11396484 -11.48378906 52.01308594 -11.91210938 52.93945312 C-12.33298828 53.88755859 -12.75386719 54.83566406 -13.1875 55.8125 C-14.02896411 57.65539744 -14.87140996 59.49784693 -15.71484375 61.33984375 C-16.12758545 62.25701172 -16.54032715 63.17417969 -16.96557617 64.11914062 C-18.24579663 66.86598126 -19.63462023 69.53398727 -21.046875 72.21484375 C-22.84638246 75.77683177 -23.85296837 78.4334428 -23.5625 82.5 C-23.49482422 83.75683594 -23.49482422 83.75683594 -23.42578125 85.0390625 C-23.36777344 85.64492187 -23.30976563 86.25078125 -23.25 86.875 C-15.91806846 91.34568997 -7.15537235 90.25248349 0.93710327 88.36483765 C6.38790883 86.87085746 11.72176281 85.02995219 17.0625 83.1875 C18.62379443 82.66305979 20.18564348 82.14026777 21.74804688 81.61914062 C24.87478728 80.57309211 27.99799812 79.51741909 31.1184082 78.45263672 C44.64264259 73.83873405 58.22324829 69.39378482 71.81323242 64.97802734 C74.47425317 64.11305325 77.13459393 63.24600848 79.79492188 62.37890625 C81.51298027 61.82018775 83.23107776 61.26158944 84.94921875 60.703125 C85.73157394 60.44791077 86.51392914 60.19269653 87.31999207 59.92974854 C104.94574275 54.21238392 104.94574275 54.21238392 111.4375 57.4375 C116.02649435 60.34558181 117.76497475 64.31393436 119.6875 69.3125 C119.84868121 75.92092957 116.35764291 80.83117297 112.15234375 85.625 C110.75 86.875 110.75 86.875 108.75 86.875 C108.4096875 87.70257813 108.4096875 87.70257813 108.0625 88.546875 C106.36274074 91.56192417 104.20195184 93.68730369 101.75 96.125 C100.4196875 97.46304688 100.4196875 97.46304688 99.0625 98.828125 C96.75 100.875 96.75 100.875 94.75 100.875 C94.54375 101.431875 94.3375 101.98875 94.125 102.5625 C92.61435988 105.10312201 90.81141825 106.64007497 88.48046875 108.43359375 C86.08070996 110.4324899 83.94782316 112.65553863 81.75 114.875 C80.53027899 116.06287716 79.30879987 117.24895072 78.0859375 118.43359375 C76.76548885 119.72642346 75.44517902 121.01939496 74.125 122.3125 C73.45726562 122.95509766 72.78953125 123.59769531 72.1015625 124.25976562 C66.65571854 129.62392193 63.66660539 133.75230554 63.0859375 141.578125 C63.28471828 148.97642588 66.71912725 153.15373798 71.375 158.625 C72.08785156 159.50542969 72.80070313 160.38585937 73.53515625 161.29296875 C74.93254321 163.01854935 76.33886863 164.73693742 77.75488281 166.44726562 C79.63416448 168.73404694 81.47222918 171.04195948 83.2734375 173.390625 C83.75474121 174.01743164 84.23604492 174.64423828 84.73193359 175.29003906 C85.75 176.875 85.75 176.875 85.75 178.875 C86.41 178.875 87.07 178.875 87.75 178.875 C88.70720485 180.24243549 89.65352568 181.61880108 90.54296875 183.03125 C91.87244261 185.06203207 93.32581165 186.95669245 94.8125 188.875 C97.91455394 193.00583639 100.42765576 196.66463952 101.1875 201.875 C100.46759918 206.81146276 97.89323029 209.73176971 94.4375 213.1875 C89.94884908 216.00595523 85.5681858 216.19494018 80.45703125 215.1953125 C78.82158452 214.8133535 77.19020312 214.41371638 75.5625 214 C74.20813843 213.66705933 74.20813843 213.66705933 72.82641602 213.32739258 C63.97334935 211.07327421 55.31290225 208.25027867 46.63916016 205.39404297 C38.12458665 202.59905928 29.56527395 200.04676008 20.9375 197.625 C10.33899832 194.6452829 -0.09844344 191.45339311 -10.45703125 187.71875 C-16.76338871 185.49764297 -22.55889375 184.17106665 -29.25 183.875 C-27.31484382 193.55078088 -22.299546 200.84583346 -17.0078125 209.046875 C-15.28694098 211.81556607 -13.72171046 214.62435945 -12.1875 217.5 C-7.48112562 226.76050565 -7.48112562 226.76050565 -0.25 233.875 C1.29353392 230.84876108 2.73420669 227.77920924 4.16064453 224.69628906 C5.39111823 222.0408109 6.63660829 219.39243754 7.88037109 216.74316406 C8.64860798 215.09281352 9.39802638 213.43373124 10.14453125 211.7734375 C10.55058594 210.89945313 10.95664063 210.02546875 11.375 209.125 C11.71789062 208.36703125 12.06078125 207.6090625 12.4140625 206.828125 C14.3354734 204.01904474 15.49883824 203.03096863 18.75 201.875 C22.28578826 202.37154766 25.56433843 203.47894368 28.9375 204.625 C30.30938477 205.06199219 30.30938477 205.06199219 31.70898438 205.5078125 C38.17999482 207.58999741 38.17999482 207.58999741 40.75 208.875 C40.22622244 213.89263721 38.6424397 217.25277215 36.0625 221.5625 C35.32730167 222.80941075 34.59293364 224.05681141 33.859375 225.3046875 C33.49779297 225.9140918 33.13621094 226.52349609 32.76367188 227.15136719 C29.53245738 232.645677 26.56767534 238.29652659 23.625 243.94921875 C10.11870012 269.85431923 10.11870012 269.85431923 2.75 273.875 C-1.87726952 275.31587574 -5.35068435 275.1298061 -10 273.8125 C-15.77330006 270.37072496 -19.10496045 264.82521446 -22.5625 259.1875 C-22.97709473 258.5181543 -23.39168945 257.84880859 -23.81884766 257.15917969 C-28.00117077 250.36271758 -32.06042017 243.49225998 -36.125 236.625 C-36.46809204 236.04556641 -36.81118408 235.46613281 -37.16467285 234.86914062 C-40.69100466 228.9122696 -44.20786169 222.95011264 -47.69921875 216.97265625 C-48.73679528 215.21082919 -49.7745441 213.44910358 -50.8125 211.6875 C-51.26415527 210.90536133 -51.71581055 210.12322266 -52.18115234 209.31738281 C-58.04592933 199.34772825 -58.04592933 199.34772825 -67.25 192.875 C-78.48865368 190.40257219 -88.84504717 197.28472053 -98.56811523 202.0390625 C-117.11896012 211.03804923 -117.11896012 211.03804923 -126.25 208.875 C-130.00134501 206.3659599 -132.19708171 202.191965 -133.25 197.875 C-133.45170744 187.78962782 -125.04563343 179.46235386 -119.15893555 171.92553711 C-114.74241683 166.26736662 -110.55658179 160.45963865 -106.44482422 154.57714844 C-105.2674638 152.89987896 -104.07361838 151.2352466 -102.87890625 149.5703125 C-102.15574219 148.53648437 -101.43257812 147.50265625 -100.6875 146.4375 C-100.04683594 145.53128906 -99.40617187 144.62507812 -98.74609375 143.69140625 C-96.616713 139.68283308 -95.94675383 135.97387235 -96.59765625 131.46875 C-98.2915971 126.50726206 -100.37972894 123.05535196 -104.04296875 119.28515625 C-105.25 117.875 -105.25 117.875 -105.25 115.875 C-105.91 115.875 -106.57 115.875 -107.25 115.875 C-107.25 115.215 -107.25 114.555 -107.25 113.875 C-107.81315918 113.6385376 -108.37631836 113.4020752 -108.95654297 113.15844727 C-111.77906271 111.57892988 -113.68189874 109.65064816 -115.9453125 107.33984375 C-116.82574219 106.44845703 -117.70617187 105.55707031 -118.61328125 104.63867188 C-119.52464844 103.70603516 -120.43601562 102.77339844 -121.375 101.8125 C-123.18789615 99.96527833 -125.00289358 98.12011579 -126.8203125 96.27734375 C-127.62227051 95.45741943 -128.42422852 94.63749512 -129.25048828 93.79272461 C-131.10596361 91.8235366 -131.10596361 91.8235366 -133.25 90.875 C-133.25 90.215 -133.25 89.555 -133.25 88.875 C-133.83394531 88.6275 -134.41789062 88.38 -135.01953125 88.125 C-137.57931647 86.69044436 -139.04523301 85.10795714 -140.9375 82.875 C-141.84048828 81.823125 -141.84048828 81.823125 -142.76171875 80.75 C-146.11703525 76.5228296 -145.82597667 72.08278904 -145.25 66.875 C-143.10090429 62.49721244 -140.88337136 59.55090028 -136.25 57.875 C-126.90527857 57.56372104 -118.51426321 60.95230444 -109.9375 64.1875 C-87.43006354 73.48648445 -87.43006354 73.48648445 -63.8125 72.875 C-60.15968513 70.02402254 -57.79775921 66.71887612 -55.25 62.875 C-54.68152344 62.02292969 -54.11304687 61.17085937 -53.52734375 60.29296875 C-50.6860753 55.92803107 -48.0383469 51.51543048 -45.5625 46.93359375 C-42.12756265 40.59467995 -38.51221591 34.36671371 -34.86376953 28.14941406 C-33.74841719 26.24730068 -32.63777325 24.34249047 -31.52734375 22.4375 C-15.31036384 -5.29974133 -15.31036384 -5.29974133 0 0 Z M18.71484375 119.37890625 C17.7496582 119.70407227 16.78447266 120.02923828 15.79003906 120.36425781 C14.76620117 120.71842773 13.74236328 121.07259766 12.6875 121.4375 C11.63143555 121.79811523 10.57537109 122.15873047 9.48730469 122.53027344 C7.30865119 123.27565384 5.13108241 124.024212 2.95458984 124.77587891 C-0.06930526 125.8130247 -3.10080189 126.82290785 -6.13671875 127.82421875 C-7.9246704 128.42390933 -9.71244064 129.02414111 -11.5 129.625 C-12.73955444 130.02827515 -12.73955444 130.02827515 -14.00415039 130.43969727 C-18.2787383 131.9013827 -21.44554945 133.13327256 -24.25 136.875 C-24.86381743 140.48117743 -24.60357036 142.24472239 -22.8125 145.4375 C-15.91208281 152.00131147 -6.35942857 155.00847738 2.375 158.375 C3.62559554 158.8610174 4.87616506 159.34710176 6.12670898 159.83325195 C20.05527935 166.01461566 20.05527935 166.01461566 34.75 168.875 C33.35244128 164.69727099 31.36565305 162.07529911 28.4375 158.8125 C23.12240563 152.45153222 18.78871543 145.20811715 18.125 136.75 C18.95876335 131.58066726 20.92041525 127.27371811 23.75 122.875 C24.41 122.545 25.07 122.215 25.75 121.875 C25.75 121.215 25.75 120.555 25.75 119.875 C26.74 119.545 27.73 119.215 28.75 118.875 C28.75 118.545 28.75 118.215 28.75 117.875 C25.0481676 117.71577696 22.21454107 118.18520334 18.71484375 119.37890625 Z " fill="#E8EEFC" transform="translate(158.25,16.125)"/>
<path d="M0 0 C0 0.66 0 1.32 0 2 C0.61875 2.2475 1.2375 2.495 1.875 2.75 C4.35068687 4.20628639 4.95125002 5.37812506 6 8 C6.66 8 7.32 8 8 8 C9.15879664 10.18144224 10.30187378 12.36903017 11.4375 14.5625 C11.76298828 15.17158203 12.08847656 15.78066406 12.42382812 16.40820312 C14.56785067 20.58573159 15.66998017 24.24171411 16 29 C15 30 15 30 12.77514648 30.11352539 C11.81680908 30.10828857 10.85847168 30.10305176 9.87109375 30.09765625 C8.83662109 30.09443359 7.80214844 30.09121094 6.73632812 30.08789062 C5.64771484 30.07951172 4.55910156 30.07113281 3.4375 30.0625 C1.7987793 30.05573242 1.7987793 30.05573242 0.12695312 30.04882812 C-2.58208495 30.03699826 -5.29101599 30.02051543 -8 30 C-8.35191406 29.18015625 -8.70382812 28.3603125 -9.06640625 27.515625 C-9.80697266 25.89914063 -9.80697266 25.89914063 -10.5625 24.25 C-11.03816406 23.18265625 -11.51382813 22.1153125 -12.00390625 21.015625 C-14.41931309 17.36651721 -16.93820723 15.45800285 -21 14 C-23.98194265 13.43049699 -26.84416582 13.33184849 -29.875 13.375 C-31.06536865 13.38648071 -31.06536865 13.38648071 -32.27978516 13.39819336 C-37.89462477 13.61104273 -41.94476288 14.54602145 -46.37109375 18.21875 C-48.91852649 21.00443185 -50.42996828 23.54593022 -52 27 C-52.35529785 27.77504883 -52.7105957 28.55009766 -53.07666016 29.34863281 C-54.80663609 34.31625275 -54.36919856 39.54030894 -54.375 44.75 C-54.39949219 45.89210937 -54.42398437 47.03421875 -54.44921875 48.2109375 C-54.48077335 57.36177134 -52.80149927 64.50687956 -46.5625 71.4375 C-46.00691406 72.07558594 -45.45132813 72.71367187 -44.87890625 73.37109375 C-40.43854513 77.22063759 -35.72143237 77.33877174 -30.0625 77.3125 C-29.02706055 77.33666992 -29.02706055 77.33666992 -27.97070312 77.36132812 C-21.69133696 77.36728013 -17.77212487 75.73091266 -13.3125 71.375 C-10.32191814 67.34254994 -10.32191814 67.34254994 -8 59 C-0.08 59 7.84 59 16 59 C15.23582475 65.87757721 14.67229316 69.68743531 11.5625 75.375 C11.24990234 75.97699219 10.93730469 76.57898438 10.61523438 77.19921875 C9.19687275 79.90400138 7.69546911 82.45679634 6 85 C5.34 85 4.68 85 4 85 C3.63841797 85.8971875 3.63841797 85.8971875 3.26953125 86.8125 C-0.5228778 93.34711252 -10.34863069 96.36655738 -17.24609375 98.3046875 C-31.03586922 100.85888108 -44.49693046 99.56189465 -57 93 C-57 92.34 -57 91.68 -57 91 C-57.99 91 -58.98 91 -60 91 C-60 90.34 -60 89.68 -60 89 C-60.86818359 88.62875 -60.86818359 88.62875 -61.75390625 88.25 C-70.80491273 83.21291813 -75.82845704 72.45902055 -78.609375 62.921875 C-80.18675906 56.94795238 -80.50041653 51.2819027 -80.4375 45.125 C-80.42920166 44.0721582 -80.42090332 43.01931641 -80.41235352 41.93457031 C-80.11649217 28.30178485 -76.19263095 16.06281693 -66.93359375 5.68359375 C-48.03636858 -12.13185824 -21.63105337 -13.39478054 0 0 Z " fill="#E4EAF9" transform="translate(371,113)"/>
<path d="M0 0 C6.02776733 4.40153608 10.70970933 9.27748455 14 16 C14.31839844 16.64066406 14.63679687 17.28132813 14.96484375 17.94140625 C17.95872542 25.21226173 17.47798559 33.27869439 17 41 C16 42 16 42 13.94358826 42.12025452 C13.03979935 42.11803391 12.13601044 42.11581329 11.20483398 42.11352539 C10.18385117 42.11344986 9.16286835 42.11337433 8.11094666 42.11329651 C7.0005452 42.10813522 5.89014374 42.10297394 4.74609375 42.09765625 C3.61551041 42.0962413 2.48492706 42.09482635 1.32008362 42.09336853 C-2.30747065 42.08775019 -5.93496424 42.07519458 -9.5625 42.0625 C-12.01497307 42.05748736 -14.4674471 42.05292405 -16.91992188 42.04882812 C-22.94663545 42.0377748 -28.97331339 42.02101884 -35 42 C-34.39729081 43.78180839 -33.7831063 45.55973811 -33.1640625 47.3359375 C-32.8232666 48.3264209 -32.4824707 49.3169043 -32.13134766 50.33740234 C-30.39566635 54.42228372 -27.84056174 56.07971913 -24 58 C-22.06640414 58.14851844 -20.12657903 58.22130833 -18.1875 58.25 C-17.14980469 58.27578125 -16.11210938 58.3015625 -15.04296875 58.328125 C-11.54380845 57.95080861 -9.79668794 57.10819939 -7 55 C-6.55382324 54.31228516 -6.10764648 53.62457031 -5.64794922 52.91601562 C-4 51 -4 51 -1.82348633 50.54589844 C-1.00130615 50.5668457 -0.17912598 50.58779297 0.66796875 50.609375 C1.56064453 50.62226563 2.45332031 50.63515625 3.37304688 50.6484375 C4.30181641 50.68195313 5.23058594 50.71546875 6.1875 50.75 C7.59805664 50.77707031 7.59805664 50.77707031 9.03710938 50.8046875 C11.35909889 50.8518345 13.6790369 50.91761769 16 51 C16.33 51.66 16.66 52.32 17 53 C14.13894845 61.58315464 8.30913743 67.92519711 0.33203125 71.93359375 C-0.43753906 72.28550781 -1.20710937 72.63742188 -2 73 C-2.67675781 73.32097656 -3.35351562 73.64195312 -4.05078125 73.97265625 C-14.11654554 78.04824819 -25.50617536 76.9354029 -35.45703125 73.1484375 C-38.66508208 71.69964035 -41.29333463 70.25555447 -44 68 C-44 67.34 -44 66.68 -44 66 C-44.8353125 65.7215625 -44.8353125 65.7215625 -45.6875 65.4375 C-51.39544887 61.88931557 -54.25970589 55.29092803 -56 49 C-58.43836334 36.72351789 -58.07731015 23.14125399 -51.375 12.25 C-40.00994681 -3.17400076 -17.41617959 -11.33484449 0 0 Z M-30 15 C-33.09960422 18.89664531 -34.65177578 22.00878615 -35 27 C-33.90812017 28.31775285 -33.90812017 28.31775285 -31.22436523 28.11352539 C-29.40980835 28.10567017 -29.40980835 28.10567017 -27.55859375 28.09765625 C-26.25341797 28.09443359 -24.94824219 28.09121094 -23.60351562 28.08789062 C-22.2148431 28.07953401 -20.82617123 28.07106905 -19.4375 28.0625 C-18.04492344 28.05748666 -16.65234519 28.05292347 -15.25976562 28.04882812 C-11.8398013 28.03699434 -8.41992156 28.0205088 -5 28 C-5.12632812 26.73929688 -5.25265625 25.47859375 -5.3828125 24.1796875 C-5.48940186 23.11596924 -5.48940186 23.11596924 -5.59814453 22.03076172 C-6.21201316 18.92859933 -7.80270813 17.19729187 -10 15 C-13.55965981 12.62689346 -15.21962224 12.73084959 -19.4375 12.75 C-20.57058594 12.74484375 -21.70367188 12.7396875 -22.87109375 12.734375 C-25.88929154 12.99060153 -27.51261069 13.33423702 -30 15 Z " fill="#E4EAF9" transform="translate(560,136)"/>
<path d="M0 0 C7.70182523 8.74791355 10.12612241 19.34326891 10.55078125 30.73828125 C10.30078125 33.61328125 10.30078125 33.61328125 8.30078125 35.61328125 C6.16207886 35.85379028 6.16207886 35.85379028 3.48388672 35.84033203 C2.48300018 35.84018097 1.48211365 35.84002991 0.45089722 35.83987427 C-1.17415237 35.82439041 -1.17415237 35.82439041 -2.83203125 35.80859375 C-3.9390036 35.80576385 -5.04597595 35.80293396 -6.18649292 35.80001831 C-9.73251012 35.78879644 -13.2782775 35.76368816 -16.82421875 35.73828125 C-19.22395469 35.72825405 -21.62369458 35.71912775 -24.0234375 35.7109375 C-29.91545026 35.68885057 -35.80731666 35.65535332 -41.69921875 35.61328125 C-41.41232902 37.05357325 -41.11627958 38.49204264 -40.81640625 39.9296875 C-40.65253418 40.73092041 -40.48866211 41.53215332 -40.31982422 42.35766602 C-39.27242907 46.16446532 -37.25459609 48.63944986 -33.93359375 50.71875 C-29.07949138 52.66208819 -22.53554889 52.71208854 -17.65234375 50.8203125 C-14.96477145 49.08403436 -13.47677426 47.27961452 -11.69921875 44.61328125 C-9.63623047 44.27270508 -9.63623047 44.27270508 -7.12890625 44.3203125 C-6.23300781 44.32998047 -5.33710938 44.33964844 -4.4140625 44.34960938 C-3.00833984 44.38731445 -3.00833984 44.38731445 -1.57421875 44.42578125 C-0.15689453 44.44608398 -0.15689453 44.44608398 1.2890625 44.46679688 C3.62686904 44.50221819 5.96354362 44.55160854 8.30078125 44.61328125 C7.30970982 52.26506696 7.30970982 52.26506696 5.30078125 55.61328125 C4.64078125 55.61328125 3.98078125 55.61328125 3.30078125 55.61328125 C2.31078125 57.59328125 2.31078125 57.59328125 1.30078125 59.61328125 C0.64078125 59.61328125 -0.01921875 59.61328125 -0.69921875 59.61328125 C-0.69921875 60.27328125 -0.69921875 60.93328125 -0.69921875 61.61328125 C-10.70562901 69.15909882 -20.45022935 70.4960913 -32.69921875 69.61328125 C-42.79436983 67.83830963 -51.26020286 62.55964947 -57.69921875 54.61328125 C-59.27718707 52.03249195 -60.5438605 49.40585331 -61.69921875 46.61328125 C-62.03928955 45.86353027 -62.37936035 45.1137793 -62.72973633 44.34130859 C-64.45608699 39.48352913 -64.06828782 34.46980881 -64.07421875 29.36328125 C-64.09871094 28.26886719 -64.12320312 27.17445313 -64.1484375 26.046875 C-64.19034423 14.38283503 -60.00392543 6.3207456 -52.109375 -2.078125 C-36.99926734 -16.2638496 -14.21251306 -13.50520293 0 0 Z M-37.94921875 9.05078125 C-41.53860592 13.06248909 -41.53860592 13.06248909 -41.69921875 21.61328125 C-31.79921875 21.61328125 -21.89921875 21.61328125 -11.69921875 21.61328125 C-13.72197314 13.27816603 -13.72197314 13.27816603 -18.69921875 7.61328125 C-24.26960594 4.82808766 -32.97538184 5.29184814 -37.94921875 9.05078125 Z " fill="#E4EAF9" transform="translate(455.69921875,142.38671875)"/>
<path d="M0 0 C0.68835938 0.33902344 1.37671875 0.67804688 2.0859375 1.02734375 C7.36512386 3.94169012 10.63889172 7.41919861 13 13 C13.68677396 15.77591153 13.89870941 18.11321818 14 21 C11.738186 23.261814 6.78259909 22.41960709 3.75 22.5 C2.46029297 22.58121094 2.46029297 22.58121094 1.14453125 22.6640625 C-1.41714675 22.71932212 -3.52454517 22.67410943 -6 22 C-7.74155542 20.32356909 -8.81230182 18.73466914 -9.95605469 16.61132812 C-10.98300374 14.65886331 -10.98300374 14.65886331 -14 14 C-15.64176695 13.85747599 -17.28982655 13.77973245 -18.9375 13.75 C-20.21947266 13.71132812 -20.21947266 13.71132812 -21.52734375 13.671875 C-24.50804679 14.06741853 -25.8428526 14.93621433 -28 17 C-28.66666667 19.5 -28.66666667 19.5 -28 22 C-25.08706768 24.7071955 -22.58340478 25.52995244 -18.7109375 26.2109375 C-17.17373047 26.50097656 -17.17373047 26.50097656 -15.60546875 26.796875 C-13.47588494 27.17798553 -11.3456849 27.55567088 -9.21484375 27.9296875 C-1.22184569 29.44646116 6.47682795 31.5671657 12.4375 37.375 C15.8393931 43.09018041 18.13658963 48.26421095 17 55 C15.8662098 58.43081968 14.50676328 61.71740857 13 65 C12.34 65 11.68 65 11 65 C10.76410156 65.59554687 10.52820313 66.19109375 10.28515625 66.8046875 C7.29472269 71.91296611 0.39222476 74.88990215 -5.1875 76.375 C-17.14405801 78.39939077 -30.23833229 78.10151156 -40.6328125 71.26953125 C-45.66524322 67.10905634 -49.78078835 62.21156225 -52 56 C-52.18359375 53.29296875 -52.18359375 53.29296875 -52 51 C-49.38093039 48.38093039 -42.67397791 49.45266938 -39.16430664 49.39086914 C-32.71002693 49.50759743 -32.71002693 49.50759743 -29.4765625 51.75 C-28.04787916 53.78061591 -27.02397622 55.74725233 -26 58 C-23.04412889 59.47793555 -20.35002355 59.17053651 -17.0625 59.1875 C-15.19271484 59.20876953 -15.19271484 59.20876953 -13.28515625 59.23046875 C-9.85723703 59.26240498 -9.85723703 59.26240498 -7 57 C-5.94099756 54.55614822 -5.8642889 53.41947067 -6.6875 50.875 C-8.61369314 48.12329552 -10.91500201 47.27019309 -14.13134766 46.46923828 C-15.2612915 46.27177002 -15.2612915 46.27177002 -16.4140625 46.0703125 C-17.25316162 45.91699463 -18.09226074 45.76367676 -18.95678711 45.60571289 C-19.83729736 45.44707764 -20.71780762 45.28844238 -21.625 45.125 C-41.36248052 41.34585872 -41.36248052 41.34585872 -47 34 C-50.39958071 28.13865395 -50.71336578 22.69771204 -50 16 C-48.01338777 9.37795922 -44.07750836 4.28840366 -38.5625 0.1875 C-26.87957277 -5.22653945 -11.63396515 -5.91599504 0 0 Z " fill="#E4EAF9" transform="translate(843,135)"/>
<path d="M0 0 C0 0.66 0 1.32 0 2 C0.99 2.33 1.98 2.66 3 3 C6.7360247 7.52851479 8.37209343 12.15185058 9 18 C8 19 8 19 6.05053711 19.11352539 C5.2178833 19.10828857 4.38522949 19.10305176 3.52734375 19.09765625 C2.62822266 19.09443359 1.72910156 19.09121094 0.80273438 19.08789062 C-0.14279297 19.07951172 -1.08832031 19.07113281 -2.0625 19.0625 C-3.01189453 19.05798828 -3.96128906 19.05347656 -4.93945312 19.04882812 C-7.29303065 19.0370011 -9.64648477 19.02052025 -12 19 C-12.42023437 18.04996094 -12.84046875 17.09992188 -13.2734375 16.12109375 C-15.41765119 12.24501516 -16.69865286 11.67835819 -20.7265625 10.390625 C-24.5765899 9.72910826 -28.19281913 10.26852775 -32 11 C-32 11.66 -32 12.32 -32 13 C-32.66 13 -33.32 13 -34 13 C-33.67 15.64 -33.34 18.28 -33 21 C-32.29504395 21.13051758 -31.59008789 21.26103516 -30.86376953 21.39550781 C-27.61544263 22.00313915 -24.37030969 22.62646297 -21.125 23.25 C-20.01640625 23.45496094 -18.9078125 23.65992188 -17.765625 23.87109375 C-7.27822634 25.9068829 2.29545131 28.12575771 9 37 C11.93387326 42.61262711 11.96332864 49.97358733 10.5 56.08984375 C7.71612722 63.3184225 0.90373396 68.82661385 -6 72 C-18.1035937 75.63107811 -31.73908795 75.54717444 -43.171875 69.93359375 C-48.93614853 66.65055826 -53.17923278 62.31048585 -56.375 56.5 C-57 54 -57 54 -57 47 C-50.4 47 -43.8 47 -37 47 C-35.68 49.31 -34.36 51.62 -33 54 C-29.65567055 56.63645842 -26.0747831 56.23535501 -21.9375 56.1875 C-20.09478516 56.17783203 -20.09478516 56.17783203 -18.21484375 56.16796875 C-14.98267639 56.14216872 -14.98267639 56.14216872 -12 55 C-12 52.36 -12 49.72 -12 47 C-17.13770303 44.03658633 -21.99747685 43.06417513 -27.75 42.0625 C-46.89716911 38.42803554 -46.89716911 38.42803554 -52.94140625 30.5859375 C-56.59185221 25.1170037 -55.43469562 17.33773614 -55 11 C-53.41808963 4.89402749 -47.98845186 0.52663446 -43 -3 C-30.02600352 -10.13830328 -11.98237972 -7.98825315 0 0 Z " fill="#E4EAF9" transform="translate(640,138)"/>
<path d="M0 0 C5.66313119 3.86122581 8.89996608 9.47903195 12.125 15.375 C12.70580322 16.42059082 12.70580322 16.42059082 13.29833984 17.48730469 C16.39029789 23.1009461 19.23966233 28.81499425 22.06640625 34.56640625 C24.22688436 38.81217181 26.61829242 42.89404725 29.05078125 46.98828125 C31.73771414 51.55297873 34.24638621 56.20814287 36.75 60.875 C37.389375 62.009375 38.02875 63.14375 38.6875 64.3125 C39.75 66.875 39.75 66.875 39.875 69.0625 C37.99212948 72.09601361 34.98747364 72.78870719 31.75 73.875 C30.19345703 74.40673828 30.19345703 74.40673828 28.60546875 74.94921875 C17.87834244 78.44319703 17.87834244 78.44319703 12.75 77.875 C8.19208829 72.14839298 5.4911854 65.22861078 2.46484375 58.59765625 C0.3455132 53.96362425 -1.93298235 49.41293779 -4.25 44.875 C-6.18527362 45.04559727 -6.18527362 45.04559727 -8.25 45.875 C-9.64045552 47.78111963 -9.64045552 47.78111963 -10.65234375 50.21484375 C-11.06806641 51.11396484 -11.48378906 52.01308594 -11.91210938 52.93945312 C-12.33298828 53.88755859 -12.75386719 54.83566406 -13.1875 55.8125 C-14.02896411 57.65539744 -14.87140996 59.49784693 -15.71484375 61.33984375 C-16.12758545 62.25701172 -16.54032715 63.17417969 -16.96557617 64.11914062 C-18.24579663 66.86598126 -19.63462023 69.53398727 -21.046875 72.21484375 C-22.84638246 75.77683177 -23.85296837 78.4334428 -23.5625 82.5 C-23.49482422 83.75683594 -23.49482422 83.75683594 -23.42578125 85.0390625 C-23.36777344 85.64492187 -23.30976563 86.25078125 -23.25 86.875 C-15.91806846 91.34568997 -7.15537235 90.25248349 0.93710327 88.36483765 C6.38790883 86.87085746 11.72176281 85.02995219 17.0625 83.1875 C18.62379443 82.66305979 20.18564348 82.14026777 21.74804688 81.61914062 C24.87478728 80.57309211 27.99799812 79.51741909 31.1184082 78.45263672 C44.64264259 73.83873405 58.22324829 69.39378482 71.81323242 64.97802734 C74.47425317 64.11305325 77.13459393 63.24600848 79.79492188 62.37890625 C81.51298027 61.82018775 83.23107776 61.26158944 84.94921875 60.703125 C85.73157394 60.44791077 86.51392914 60.19269653 87.31999207 59.92974854 C104.94574275 54.21238392 104.94574275 54.21238392 111.4375 57.4375 C116.02649435 60.34558181 117.76497475 64.31393436 119.6875 69.3125 C119.84868121 75.92092957 116.35764291 80.83117297 112.15234375 85.625 C110.75 86.875 110.75 86.875 108.75 86.875 C108.4096875 87.70257813 108.4096875 87.70257813 108.0625 88.546875 C106.36274074 91.56192417 104.20195184 93.68730369 101.75 96.125 C100.4196875 97.46304688 100.4196875 97.46304688 99.0625 98.828125 C96.75 100.875 96.75 100.875 94.75 100.875 C94.54375 101.431875 94.3375 101.98875 94.125 102.5625 C92.61435988 105.10312201 90.81141825 106.64007497 88.48046875 108.43359375 C86.08070996 110.4324899 83.94782316 112.65553863 81.75 114.875 C80.53027899 116.06287716 79.30879987 117.24895072 78.0859375 118.43359375 C76.76548885 119.72642346 75.44517902 121.01939496 74.125 122.3125 C73.45726562 122.95509766 72.78953125 123.59769531 72.1015625 124.25976562 C66.65571854 129.62392193 63.66660539 133.75230554 63.0859375 141.578125 C63.28471828 148.97642588 66.71912725 153.15373798 71.375 158.625 C72.08785156 159.50542969 72.80070313 160.38585937 73.53515625 161.29296875 C74.93254321 163.01854935 76.33886863 164.73693742 77.75488281 166.44726562 C79.63416448 168.73404694 81.47222918 171.04195948 83.2734375 173.390625 C83.75474121 174.01743164 84.23604492 174.64423828 84.73193359 175.29003906 C85.75 176.875 85.75 176.875 85.75 178.875 C86.41 178.875 87.07 178.875 87.75 178.875 C88.70720485 180.24243549 89.65352568 181.61880108 90.54296875 183.03125 C91.87244261 185.06203207 93.32581165 186.95669245 94.8125 188.875 C97.91455394 193.00583639 100.42765576 196.66463952 101.1875 201.875 C100.46759918 206.81146276 97.89323029 209.73176971 94.4375 213.1875 C89.94884908 216.00595523 85.5681858 216.19494018 80.45703125 215.1953125 C78.82158452 214.8133535 77.19020312 214.41371638 75.5625 214 C74.20813843 213.66705933 74.20813843 213.66705933 72.82641602 213.32739258 C63.97334935 211.07327421 55.31290225 208.25027867 46.63916016 205.39404297 C38.12458665 202.59905928 29.56527395 200.04676008 20.9375 197.625 C10.33899832 194.6452829 -0.09844344 191.45339311 -10.45703125 187.71875 C-16.76338871 185.49764297 -22.55889375 184.17106665 -29.25 183.875 C-27.31484382 193.55078088 -22.299546 200.84583346 -17.0078125 209.046875 C-15.28694098 211.81556607 -13.72171046 214.62435945 -12.1875 217.5 C-7.48112562 226.76050565 -7.48112562 226.76050565 -0.25 233.875 C1.29353392 230.84876108 2.73420669 227.77920924 4.16064453 224.69628906 C5.39111823 222.0408109 6.63660829 219.39243754 7.88037109 216.74316406 C8.64860798 215.09281352 9.39802638 213.43373124 10.14453125 211.7734375 C10.55058594 210.89945313 10.95664063 210.02546875 11.375 209.125 C11.71789062 208.36703125 12.06078125 207.6090625 12.4140625 206.828125 C14.3354734 204.01904474 15.49883824 203.03096863 18.75 201.875 C22.28578826 202.37154766 25.56433843 203.47894368 28.9375 204.625 C30.30938477 205.06199219 30.30938477 205.06199219 31.70898438 205.5078125 C38.17999482 207.58999741 38.17999482 207.58999741 40.75 208.875 C40.22622244 213.89263721 38.6424397 217.25277215 36.0625 221.5625 C35.32730167 222.80941075 34.59293364 224.05681141 33.859375 225.3046875 C33.49779297 225.9140918 33.13621094 226.52349609 32.76367188 227.15136719 C29.53245738 232.645677 26.56767534 238.29652659 23.625 243.94921875 C10.11870012 269.85431923 10.11870012 269.85431923 2.75 273.875 C-1.87726952 275.31587574 -5.35068435 275.1298061 -10 273.8125 C-15.77330006 270.37072496 -19.10496045 264.82521446 -22.5625 259.1875 C-22.97709473 258.5181543 -23.39168945 257.84880859 -23.81884766 257.15917969 C-28.00117077 250.36271758 -32.06042017 243.49225998 -36.125 236.625 C-36.46809204 236.04556641 -36.81118408 235.46613281 -37.16467285 234.86914062 C-40.69100466 228.9122696 -44.20786169 222.95011264 -47.69921875 216.97265625 C-48.73679528 215.21082919 -49.7745441 213.44910358 -50.8125 211.6875 C-51.26415527 210.90536133 -51.71581055 210.12322266 -52.18115234 209.31738281 C-58.04592933 199.34772825 -58.04592933 199.34772825 -67.25 192.875 C-78.48865368 190.40257219 -88.84504717 197.28472053 -98.56811523 202.0390625 C-117.11896012 211.03804923 -117.11896012 211.03804923 -126.25 208.875 C-130.00134501 206.3659599 -132.19708171 202.191965 -133.25 197.875 C-133.45170744 187.78962782 -125.04563343 179.46235386 -119.15893555 171.92553711 C-114.74241683 166.26736662 -110.55658179 160.45963865 -106.44482422 154.57714844 C-105.2674638 152.89987896 -104.07361838 151.2352466 -102.87890625 149.5703125 C-102.15574219 148.53648437 -101.43257812 147.50265625 -100.6875 146.4375 C-100.04683594 145.53128906 -99.40617187 144.62507812 -98.74609375 143.69140625 C-96.616713 139.68283308 -95.94675383 135.97387235 -96.59765625 131.46875 C-98.2915971 126.50726206 -100.37972894 123.05535196 -104.04296875 119.28515625 C-105.25 117.875 -105.25 117.875 -105.25 115.875 C-105.91 115.875 -106.57 115.875 -107.25 115.875 C-107.25 115.215 -107.25 114.555 -107.25 113.875 C-107.81315918 113.6385376 -108.37631836 113.4020752 -108.95654297 113.15844727 C-111.77906271 111.57892988 -113.68189874 109.65064816 -115.9453125 107.33984375 C-116.82574219 106.44845703 -117.70617187 105.55707031 -118.61328125 104.63867188 C-119.52464844 103.70603516 -120.43601562 102.77339844 -121.375 101.8125 C-123.18789615 99.96527833 -125.00289358 98.12011579 -126.8203125 96.27734375 C-127.62227051 95.45741943 -128.42422852 94.63749512 -129.25048828 93.79272461 C-131.10596361 91.8235366 -131.10596361 91.8235366 -133.25 90.875 C-133.25 90.215 -133.25 89.555 -133.25 88.875 C-133.83394531 88.6275 -134.41789062 88.38 -135.01953125 88.125 C-137.57931647 86.69044436 -139.04523301 85.10795714 -140.9375 82.875 C-141.84048828 81.823125 -141.84048828 81.823125 -142.76171875 80.75 C-146.11703525 76.5228296 -145.82597667 72.08278904 -145.25 66.875 C-143.10090429 62.49721244 -140.88337136 59.55090028 -136.25 57.875 C-126.90527857 57.56372104 -118.51426321 60.95230444 -109.9375 64.1875 C-87.43006354 73.48648445 -87.43006354 73.48648445 -63.8125 72.875 C-60.15968513 70.02402254 -57.79775921 66.71887612 -55.25 62.875 C-54.68152344 62.02292969 -54.11304687 61.17085937 -53.52734375 60.29296875 C-50.6860753 55.92803107 -48.0383469 51.51543048 -45.5625 46.93359375 C-42.12756265 40.59467995 -38.51221591 34.36671371 -34.86376953 28.14941406 C-33.74841719 26.24730068 -32.63777325 24.34249047 -31.52734375 22.4375 C-15.31036384 -5.29974133 -15.31036384 -5.29974133 0 0 Z M-18.25 4.875 C-21.12067067 8.81638453 -23.44214328 13.02501059 -25.79492188 17.28515625 C-28.428596 21.97274267 -31.20643867 26.57578791 -33.9602356 31.19348145 C-35.69975956 34.11122132 -37.43528265 37.03131969 -39.16796875 39.953125 C-39.51133774 40.53213562 -39.85470673 41.11114624 -40.20848083 41.70770264 C-42.48209224 45.55149696 -44.71341863 49.41756488 -46.92578125 53.296875 C-47.4990918 54.29323975 -48.07240234 55.28960449 -48.66308594 56.31616211 C-49.72806747 58.17010643 -50.78287955 60.02994704 -51.82519531 61.89672852 C-55.49877084 68.26036881 -59.46924715 73.14215494 -66.25 76.25 C-83.7385236 79.89344242 -107.87365287 68.39618261 -123.95605469 61.75805664 C-128.53816467 59.99416862 -133.43976564 60.23454387 -138.25 60.875 C-141.84556417 63.46715091 -142.4771561 66.10726409 -143.1875 70.3125 C-143.4629417 74.70507025 -142.83291312 77.19630556 -140.25 80.875 C-137.72576638 83.70317195 -135.16015046 86.44060662 -132.25 88.875 C-131.59 88.875 -130.93 88.875 -130.25 88.875 C-130.25 89.535 -130.25 90.195 -130.25 90.875 C-128.77877584 92.36044794 -128.77877584 92.36044794 -126.8359375 93.91015625 C-121.01272286 98.85950373 -115.76266052 104.34860524 -110.43359375 109.81835938 C-109.66402344 110.59888672 -108.89445312 111.37941406 -108.1015625 112.18359375 C-107.06249756 113.24791626 -107.06249756 113.24791626 -106.00244141 114.33374023 C-104.38866268 116.09513776 -104.38866268 116.09513776 -102.25 115.875 C-101.97285156 116.45121094 -101.69570312 117.02742188 -101.41015625 117.62109375 C-99.91252211 120.53063886 -98.1469858 123.22713768 -96.37109375 125.97265625 C-93.73699908 130.44235697 -93.5059788 134.84842264 -94.25 139.875 C-97.58357014 146.87396243 -102.48253787 153.13935944 -107.125 159.3125 C-108.36348299 160.97641236 -109.60176552 162.64047394 -110.83984375 164.3046875 C-111.42878418 165.09327148 -112.01772461 165.88185547 -112.62451172 166.69433594 C-125.71275961 181.77660177 -125.71275961 181.77660177 -130.25 199.875 C-128.61312815 203.46052881 -127.56027417 204.66815055 -124.25 206.875 C-117.73546364 207.92630769 -112.59952727 206.22619718 -106.8125 203.41015625 C-106.04752197 203.0573912 -105.28254395 202.70462616 -104.49438477 202.34117126 C-102.07176287 201.22256868 -99.66026885 200.08245021 -97.25 198.9375 C-94.83915882 197.79759665 -92.42635085 196.66329087 -90.00561523 195.54454041 C-88.50702245 194.85159907 -87.01384812 194.14676183 -85.52758789 193.42774963 C-79.30157873 190.54226805 -72.96086616 188.93889014 -66.1875 190.75 C-57.39671064 194.60578028 -52.25527317 204.65455994 -47.75 212.625 C-46.61545047 214.58904283 -45.4800389 216.55258796 -44.34375 218.515625 C-43.8075 219.44826172 -43.27125 220.38089844 -42.71875 221.34179688 C-40.95102192 224.39065767 -39.11640456 227.38558931 -37.25 230.375 C-34.81697051 234.28541046 -32.44868042 238.22496993 -30.12109375 242.19921875 C-29.55583984 243.1634375 -28.99058594 244.12765625 -28.40820312 245.12109375 C-27.29509568 247.02386312 -26.18548062 248.92868168 -25.08007812 250.8359375 C-18.54759971 263.15774031 -18.54759971 263.15774031 -8.25 271.875 C-2.66292683 272.40710221 1.01760109 272.16710359 5.75 268.875 C11.24015917 262.74498773 14.97574795 255.37140382 18.875 248.1875 C20.18730661 245.78622302 21.50344777 243.387061 22.8203125 240.98828125 C23.14807678 240.39000519 23.47584106 239.79172913 23.8135376 239.17532349 C25.96328988 235.26425078 28.1736495 231.39412956 30.4296875 227.54296875 C30.99155762 226.58156982 31.55342773 225.6201709 32.13232422 224.62963867 C33.19100736 222.82687352 34.25745558 221.02864051 35.33251953 219.2355957 C35.80028809 218.43597412 36.26805664 217.63635254 36.75 216.8125 C37.1625 216.12027344 37.575 215.42804688 38 214.71484375 C39.05366721 212.70109337 39.05366721 212.70109337 37.75 209.875 C35.15025989 208.82145235 32.68048219 207.96852078 30 207.1875 C29.28328125 206.96255859 28.5665625 206.73761719 27.828125 206.50585938 C24.03969642 205.36027757 20.75187202 204.58352507 16.75 204.875 C6.99545667 219.24843894 6.99545667 219.24843894 1.75 234.875 C-0.5 235.1875 -0.5 235.1875 -3.25 234.875 C-7.51469468 230.74787611 -10.27040976 224.97016285 -13.25 219.875 C-14.46125962 217.81924497 -15.673973 215.76435129 -16.88671875 213.70947266 C-17.75528033 212.23415691 -18.62116012 210.75725908 -19.484375 209.27880859 C-21.4314708 205.94462897 -23.39019966 202.62586103 -25.44921875 199.359375 C-31.39976794 189.75159172 -31.39976794 189.75159172 -30.25 183.875 C-29.59 183.215 -28.93 182.555 -28.25 181.875 C-20.96466774 182.17153061 -14.44660469 184.13230153 -7.53515625 186.33984375 C-5.85953865 186.86365883 -5.85953865 186.86365883 -4.15007019 187.39805603 C-1.76655189 188.14393244 0.61584408 188.89340341 2.99719238 189.6461792 C9.19476542 191.60492061 15.40063622 193.53706095 21.60546875 195.47265625 C22.82803375 195.854823 24.05059875 196.23698975 25.31021118 196.6307373 C35.34667848 199.7635475 45.40823304 202.80060057 55.5 205.75 C56.16957733 205.94633026 56.83915466 206.14266052 57.52902222 206.34494019 C61.59832621 207.53711636 65.67252227 208.71112166 69.75 209.875 C71.29796265 210.3244397 71.29796265 210.3244397 72.87719727 210.78295898 C73.84197998 211.05696533 74.8067627 211.33097168 75.80078125 211.61328125 C76.63005127 211.85087158 77.45932129 212.08846191 78.3137207 212.33325195 C83.96171331 213.58917896 89.69567413 213.95954576 94.75 210.875 C97.59044948 207.42588277 98.29395269 204.37744338 98.09375 199.90625 C97.49893387 196.39142744 95.73951789 193.7410591 93.75 190.875 C93.17121094 189.99714844 92.59242188 189.11929688 91.99609375 188.21484375 C89.48506946 184.46202576 89.48506946 184.46202576 86.75 180.875 C86.09 180.875 85.43 180.875 84.75 180.875 C84.38068359 179.79412109 84.38068359 179.79412109 84.00390625 178.69140625 C82.60727052 175.55441447 80.91706944 173.41956267 78.6875 170.8125 C60.24815959 148.7984894 60.24815959 148.7984894 60.75 138.875 C62.54006149 131.89257473 66.81592202 126.92382398 71.75 121.875 C72.19972168 121.41158203 72.64944336 120.94816406 73.11279297 120.47070312 C77.74266711 115.71379442 82.38339443 111.02238719 87.421875 106.6953125 C92.34266182 102.42719344 96.97483853 97.87189641 101.58813477 93.27709961 C103.07063948 91.80441443 104.56349769 90.34274764 106.05664062 88.88085938 C107.01367589 87.9303466 107.97007905 86.97919686 108.92578125 86.02734375 C109.78083252 85.18163818 110.63588379 84.33593262 111.5168457 83.46459961 C115.41288041 78.94669864 117.36527295 74.74896888 117.09375 68.83203125 C116.48797485 65.38324317 115.07624508 63.43983432 112.75 60.875 C107.56554455 57.84258266 104.53398644 57.78808147 98.75 58.875 C96.3425542 59.53059456 93.94935913 60.24003284 91.5703125 60.9921875 C90.89326767 61.20494324 90.21622284 61.41769897 89.5186615 61.63690186 C87.30223287 62.33549121 85.0885784 63.04243589 82.875 63.75 C81.31182502 64.24546121 79.74859163 64.74073817 78.18530273 65.23583984 C66.33062832 69.00205881 54.52541492 72.91184213 42.7331543 76.8684082 C33.5676312 79.94310312 24.38821825 82.96968325 15.1875 85.9375 C14.04611572 86.30762207 12.90473145 86.67774414 11.72875977 87.05908203 C-10.56367317 94.22107959 -10.56367317 94.22107959 -20.8125 90.625 C-24.98422958 87.6299121 -24.98422958 87.6299121 -26.25 84.875 C-25.88031909 79.17478306 -24.7216033 75.0607046 -22.16015625 69.890625 C-21.70327675 68.95630646 -21.70327675 68.95630646 -21.23716736 68.00311279 C-20.27317081 66.03814431 -19.29324432 64.08165381 -18.3125 62.125 C-17.65843075 60.79870642 -17.00542672 59.47188696 -16.35351562 58.14453125 C-14.6655911 54.71468804 -12.96112345 51.29333832 -11.25 47.875 C-10.90767334 47.10768555 -10.56534668 46.34037109 -10.21264648 45.54980469 C-8.7924804 43.07901105 -6.88289486 42.70644048 -4.25 41.875 C0.44040607 48.9106091 4.09141363 56.38347323 7.80859375 63.95996094 C9.10890016 66.60508633 10.42886175 69.24022996 11.75 71.875 C12.41666667 73.20833333 13.08333333 74.54166667 13.75 75.875 C21.56200241 74.53479191 29.34378329 72.73471565 36.75 69.875 C37.08 69.215 37.41 68.555 37.75 67.875 C36.68590393 65.34311045 36.68590393 65.34311045 35.06640625 62.484375 C34.472229 61.38899414 33.87805176 60.29361328 33.26586914 59.16503906 C32.61496329 57.98490622 31.963836 56.80489549 31.3125 55.625 C30.65884355 54.42707426 30.00576779 53.22883149 29.35327148 52.03027344 C25.49133694 44.95443706 21.53087668 37.9421215 17.48046875 30.97265625 C15.57181779 27.55604178 13.83984302 24.07886525 12.125 20.5625 C7.0857087 9.89021231 7.0857087 9.89021231 -1.25 1.875 C-7.50210889 -0.08759809 -13.33488842 0.4110803 -18.25 4.875 Z " fill="#FCFEFE" transform="translate(158.25,16.125)"/>
<path d="M0 0 C1.11375 0.09023437 2.2275 0.18046875 3.375 0.2734375 C6 0.625 6 0.625 7 1.625 C7.08669432 3.1137186 7.10703494 4.606445 7.09765625 6.09765625 C7.09443359 6.99677734 7.09121094 7.89589844 7.08789062 8.82226562 C7.07532227 10.24055664 7.07532227 10.24055664 7.0625 11.6875 C7.05798828 12.63689453 7.05347656 13.58628906 7.04882812 14.56445312 C7.0370011 16.91803065 7.02052025 19.27148477 7 21.625 C8.06347656 21.45097656 9.12695312 21.27695313 10.22265625 21.09765625 C14.51932787 20.56001688 17.75688574 20.95503459 22 21.625 C22.02684679 24.27090014 22.04676357 26.91653096 22.0625 29.5625 C22.07087891 30.31724609 22.07925781 31.07199219 22.08789062 31.84960938 C22.09652441 33.77494313 22.05224333 35.70035581 22 37.625 C20.05909174 39.56590826 16.52706098 39.02419435 13.9375 39.1875 C12.64714844 39.27128906 11.35679687 39.35507813 10.02734375 39.44140625 C9.02832031 39.50199219 8.02929688 39.56257813 7 39.625 C6.95051367 44.67869645 6.91423955 49.73225142 6.89013672 54.78613281 C6.8800873 56.50490781 6.86644555 58.22366575 6.84912109 59.94238281 C6.82482609 62.41475641 6.81350632 64.88690369 6.8046875 67.359375 C6.79436493 68.12618591 6.78404236 68.89299683 6.77340698 69.68304443 C6.72841406 74.9893647 6.72841406 74.9893647 9 79.625 C11.58185317 80.29226669 11.58185317 80.29226669 14.5 80.3125 C19.86956522 80.55978261 19.86956522 80.55978261 22 81.625 C22 86.575 22 91.525 22 96.625 C12.18056647 99.43055244 1.38595642 100.54812426 -8 95.625 C-13.38628028 91.76092936 -14.61538498 86.84312127 -16 80.625 C-16.35168949 77.2242473 -16.35396772 73.87684018 -16.29296875 70.4609375 C-16.28872391 69.54285309 -16.28447906 68.62476868 -16.28010559 67.67886353 C-16.26349497 64.78559322 -16.22587775 61.8930549 -16.1875 59 C-16.17243032 57.02214557 -16.15874595 55.04428008 -16.14648438 53.06640625 C-16.11364953 48.25232798 -16.06199238 43.43878749 -16 38.625 C-19.63 38.625 -23.26 38.625 -27 38.625 C-27.19436491 36.16703147 -27.3807742 33.70890706 -27.5625 31.25 C-27.61857422 30.55132812 -27.67464844 29.85265625 -27.73242188 29.1328125 C-28.11328125 23.8515625 -28.11328125 23.8515625 -27 21.625 C-23.37 21.625 -19.74 21.625 -16 21.625 C-16 14.695 -16 7.765 -16 0.625 C-10.06405686 -0.03454924 -5.71154271 -0.49841293 0 0 Z " fill="#E5EBFA" transform="translate(679,112.375)"/>
<path d="M0 0 C0.89009766 -0.00128906 1.78019531 -0.00257812 2.69726562 -0.00390625 C3.63376953 -0.00003906 4.57027344 0.00382812 5.53515625 0.0078125 C6.46779297 0.00394531 7.40042969 0.00007813 8.36132812 -0.00390625 C9.25271484 -0.00261719 10.14410156 -0.00132813 11.0625 0 C11.88355225 0.00112793 12.70460449 0.00225586 13.55053711 0.00341797 C15.59765625 0.1328125 15.59765625 0.1328125 17.59765625 1.1328125 C17.62077715 14.28430274 17.63857004 27.43578819 17.64946842 40.58729458 C17.65469781 46.69337619 17.66179645 52.79944394 17.6730957 58.90551758 C17.68392262 64.79286397 17.68993267 70.68019699 17.69253349 76.56755257 C17.6943881 78.81913527 17.69800938 81.07071719 17.70338631 83.32229424 C17.71059414 86.46414677 17.7116473 89.60594333 17.71118164 92.74780273 C17.71477692 93.68863205 17.71837219 94.62946136 17.72207642 95.59880066 C17.71170841 102.01876034 17.71170841 102.01876034 16.59765625 103.1328125 C15.04810066 103.23180773 13.49411952 103.26360774 11.94140625 103.265625 C10.53181641 103.26755859 10.53181641 103.26755859 9.09375 103.26953125 C7.61068359 103.26373047 7.61068359 103.26373047 6.09765625 103.2578125 C5.10894531 103.26167969 4.12023437 103.26554687 3.1015625 103.26953125 C2.16183594 103.26824219 1.22210938 103.26695312 0.25390625 103.265625 C-0.61427734 103.26449707 -1.48246094 103.26336914 -2.37695312 103.26220703 C-4.40234375 103.1328125 -4.40234375 103.1328125 -5.40234375 102.1328125 C-5.50302792 99.00257766 -5.53848535 95.8943633 -5.53173828 92.76367188 C-5.5334906 91.78002151 -5.53524292 90.79637115 -5.53704834 89.78291321 C-5.5414688 86.51411197 -5.53852818 83.24536434 -5.53515625 79.9765625 C-5.53582923 77.71594228 -5.53679921 75.45532212 -5.53805542 73.19470215 C-5.53953266 68.44994418 -5.53737701 63.70520501 -5.53271484 58.96044922 C-5.52701755 52.86342626 -5.53029641 46.76644731 -5.53628731 40.66942596 C-5.53989223 35.99932521 -5.53875465 31.32923497 -5.53615952 26.65913391 C-5.53549005 24.41034439 -5.53631933 22.16155393 -5.53863907 19.9127655 C-5.54116446 16.77580212 -5.5373266 13.63891109 -5.53173828 10.50195312 C-5.53376251 9.56269485 -5.53578674 8.62343658 -5.53787231 7.65571594 C-5.5124929 0.00758327 -5.5124929 0.00758327 0 0 Z " fill="#E4EAF9" transform="translate(478.40234375,106.8671875)"/>
<path d="M0 0 C1.33417969 -0.00386719 1.33417969 -0.00386719 2.6953125 -0.0078125 C4.875 0.125 4.875 0.125 5.875 1.125 C5.97380797 2.60152664 6.00579245 4.08267236 6.0078125 5.5625 C6.00974609 6.90441406 6.00974609 6.90441406 6.01171875 8.2734375 C6.00785156 9.21445313 6.00398437 10.15546875 6 11.125 C6.00580078 12.53652344 6.00580078 12.53652344 6.01171875 13.9765625 C6.01042969 14.87117187 6.00914062 15.76578125 6.0078125 16.6875 C6.00668457 17.51378906 6.00555664 18.34007812 6.00439453 19.19140625 C5.875 21.125 5.875 21.125 4.875 22.125 C1.41449825 22.37250609 -2.04527118 22.50934034 -5.51171875 22.6484375 C-9.48053107 23.17189167 -11.81360822 23.87417986 -15.125 26.125 C-19.26478757 31.88667694 -19.71364985 36.41751863 -19.69921875 43.3984375 C-19.72046562 44.84496201 -19.72046562 44.84496201 -19.74214172 46.32070923 C-19.78386523 49.38058841 -19.79925793 52.43987696 -19.8125 55.5 C-19.8415324 58.58127366 -19.87599261 61.66239768 -19.91499329 64.74356079 C-19.93753235 66.65655733 -19.95332018 68.56964721 -19.96183777 70.48275757 C-19.97238945 71.77012314 -19.97238945 71.77012314 -19.9831543 73.08349609 C-19.98837349 74.22097794 -19.98837349 74.22097794 -19.99369812 75.38143921 C-20.125 77.125 -20.125 77.125 -21.125 78.125 C-22.60152664 78.22380797 -24.08267236 78.25579245 -25.5625 78.2578125 C-26.90441406 78.25974609 -26.90441406 78.25974609 -28.2734375 78.26171875 C-29.68496094 78.25591797 -29.68496094 78.25591797 -31.125 78.25 C-32.53652344 78.25580078 -32.53652344 78.25580078 -33.9765625 78.26171875 C-34.87117187 78.26042969 -35.76578125 78.25914062 -36.6875 78.2578125 C-37.51378906 78.25668457 -38.34007812 78.25555664 -39.19140625 78.25439453 C-41.125 78.125 -41.125 78.125 -42.125 77.125 C-42.21992722 74.78246218 -42.25059791 72.46953896 -42.23852539 70.12670898 C-42.23867142 69.39504517 -42.23881744 68.66338135 -42.2389679 67.9095459 C-42.23826867 65.48003216 -42.23047585 63.05059417 -42.22265625 60.62109375 C-42.2207921 58.94100486 -42.21936819 57.26091543 -42.21836853 55.58082581 C-42.21454307 51.15026357 -42.20471256 46.7197339 -42.19366455 42.28918457 C-42.18345103 37.77157024 -42.17887104 33.25395066 -42.17382812 28.73632812 C-42.16309031 19.86587107 -42.14601356 10.99543824 -42.125 2.125 C-36.16087096 -0.85706452 -26.57677322 0.9246701 -20.125 2.125 C-19.795 4.765 -19.465 7.405 -19.125 10.125 C-18.42375 9.3825 -17.7225 8.64 -17 7.875 C-11.7454529 2.84891147 -7.31566284 -0.02132846 0 0 Z " fill="#E5EBFA" transform="translate(750.125,131.875)"/>
<path d="M0 0 C0.79664063 -0.00128906 1.59328125 -0.00257813 2.4140625 -0.00390625 C3.24679687 -0.00003906 4.07953125 0.00382813 4.9375 0.0078125 C6.18660156 0.00201172 6.18660156 0.00201172 7.4609375 -0.00390625 C8.25757813 -0.00261719 9.05421875 -0.00132812 9.875 0 C10.60589844 0.00112793 11.33679688 0.00225586 12.08984375 0.00341797 C13.9375 0.1328125 13.9375 0.1328125 15.9375 1.1328125 C15.9375 26.2128125 15.9375 51.2928125 15.9375 77.1328125 C9.0075 77.1328125 2.0775 77.1328125 -5.0625 77.1328125 C-6.72415207 75.47116043 -6.18209725 73.4676522 -6.18692017 71.24879456 C-6.18332489 70.55108444 -6.17972961 69.85337433 -6.17602539 69.13452148 C-6.17617142 68.40285767 -6.17631744 67.67119385 -6.1764679 66.9173584 C-6.17576867 64.48784466 -6.16797585 62.05840667 -6.16015625 59.62890625 C-6.1582921 57.94881736 -6.15686819 56.26872793 -6.15586853 54.58863831 C-6.15204307 50.15807607 -6.14221256 45.7275464 -6.13116455 41.29699707 C-6.12095103 36.77938274 -6.11637104 32.26176316 -6.11132812 27.74414062 C-6.10059031 18.87368357 -6.08351356 10.00325074 -6.0625 1.1328125 C-3.79176921 -0.0025529 -2.51966721 0.00388838 0 0 Z " fill="#E5EBFA" transform="translate(769.0625,132.8671875)"/>
<path d="M0 0 C0 0.66 0 1.32 0 2 C0.61875 2.2475 1.2375 2.495 1.875 2.75 C4.35068687 4.20628639 4.95125002 5.37812506 6 8 C6.66 8 7.32 8 8 8 C9.15879664 10.18144224 10.30187378 12.36903017 11.4375 14.5625 C11.76298828 15.17158203 12.08847656 15.78066406 12.42382812 16.40820312 C14.56785067 20.58573159 15.66998017 24.24171411 16 29 C15 30 15 30 12.77514648 30.11352539 C11.81680908 30.10828857 10.85847168 30.10305176 9.87109375 30.09765625 C8.83662109 30.09443359 7.80214844 30.09121094 6.73632812 30.08789062 C5.64771484 30.07951172 4.55910156 30.07113281 3.4375 30.0625 C1.7987793 30.05573242 1.7987793 30.05573242 0.12695312 30.04882812 C-2.58208495 30.03699826 -5.29101599 30.02051543 -8 30 C-8.35191406 29.18015625 -8.70382812 28.3603125 -9.06640625 27.515625 C-9.80697266 25.89914063 -9.80697266 25.89914063 -10.5625 24.25 C-11.03816406 23.18265625 -11.51382813 22.1153125 -12.00390625 21.015625 C-14.41931309 17.36651721 -16.93820723 15.45800285 -21 14 C-23.98194265 13.43049699 -26.84416582 13.33184849 -29.875 13.375 C-31.06536865 13.38648071 -31.06536865 13.38648071 -32.27978516 13.39819336 C-37.89462477 13.61104273 -41.94476288 14.54602145 -46.37109375 18.21875 C-48.91852649 21.00443185 -50.42996828 23.54593022 -52 27 C-52.35529785 27.77504883 -52.7105957 28.55009766 -53.07666016 29.34863281 C-54.80663609 34.31625275 -54.36919856 39.54030894 -54.375 44.75 C-54.39949219 45.89210937 -54.42398437 47.03421875 -54.44921875 48.2109375 C-54.48077335 57.36177134 -52.80149927 64.50687956 -46.5625 71.4375 C-46.00691406 72.07558594 -45.45132813 72.71367187 -44.87890625 73.37109375 C-40.43854513 77.22063759 -35.72143237 77.33877174 -30.0625 77.3125 C-29.02706055 77.33666992 -29.02706055 77.33666992 -27.97070312 77.36132812 C-21.69133696 77.36728013 -17.77212487 75.73091266 -13.3125 71.375 C-10.32191814 67.34254994 -10.32191814 67.34254994 -8 59 C-0.08 59 7.84 59 16 59 C15.23582475 65.87757721 14.67229316 69.68743531 11.5625 75.375 C11.24990234 75.97699219 10.93730469 76.57898438 10.61523438 77.19921875 C9.19687275 79.90400138 7.69546911 82.45679634 6 85 C5.34 85 4.68 85 4 85 C3.63841797 85.8971875 3.63841797 85.8971875 3.26953125 86.8125 C-0.5228778 93.34711252 -10.34863069 96.36655738 -17.24609375 98.3046875 C-31.03586922 100.85888108 -44.49693046 99.56189465 -57 93 C-57 92.34 -57 91.68 -57 91 C-57.99 91 -58.98 91 -60 91 C-60 90.34 -60 89.68 -60 89 C-60.86818359 88.62875 -60.86818359 88.62875 -61.75390625 88.25 C-70.80491273 83.21291813 -75.82845704 72.45902055 -78.609375 62.921875 C-80.18675906 56.94795238 -80.50041653 51.2819027 -80.4375 45.125 C-80.42920166 44.0721582 -80.42090332 43.01931641 -80.41235352 41.93457031 C-80.11649217 28.30178485 -76.19263095 16.06281693 -66.93359375 5.68359375 C-48.03636858 -12.13185824 -21.63105337 -13.39478054 0 0 Z M-67.375 9.6875 C-71.3494411 15.04648001 -73.86667849 20.70367861 -76 27 C-76.24621094 27.70253906 -76.49242187 28.40507812 -76.74609375 29.12890625 C-80.99594187 44.1059572 -78.09711132 61.45589443 -71 75 C-64.60577362 86.02452824 -54.90487959 92.52642234 -42.6953125 95.91796875 C-28.17081821 98.56362847 -13.73963199 96.62835657 -1.25390625 88.65625 C8.11230464 81.77362709 11.5517213 72.01725416 14 61 C7.4 61 0.8 61 -6 61 C-6.495 62.505625 -6.99 64.01125 -7.5 65.5625 C-10.18385145 72.27212863 -14.43577624 76.17828564 -20.8125 79.4375 C-29.46535479 80.96447438 -37.33336294 80.61829844 -45 76 C-52.40150012 69.97387443 -55.52023062 61.21684926 -57 52 C-57.6618924 40.25525816 -56.8141965 28.95524929 -50 19 C-44.43597045 13.44744268 -38.63464762 10.97954493 -30.8125 10.625 C-23.99086224 10.79228812 -17.12338524 12.00779694 -12.046875 16.87109375 C-9.23185345 20.48552675 -7.72776916 23.68057711 -6 28 C0.27 28 6.54 28 13 28 C11.66343071 18.64401499 8.26783234 10.01561736 1.11328125 3.52734375 C-19.52821779 -11.39100398 -50.30942664 -10.22233559 -67.375 9.6875 Z " fill="#FCFDFE" transform="translate(371,113)"/>
<path d="M0 0 C0.68835938 0.33902344 1.37671875 0.67804688 2.0859375 1.02734375 C7.36512386 3.94169012 10.63889172 7.41919861 13 13 C13.68677396 15.77591153 13.89870941 18.11321818 14 21 C11.738186 23.261814 6.78259909 22.41960709 3.75 22.5 C2.46029297 22.58121094 2.46029297 22.58121094 1.14453125 22.6640625 C-1.41714675 22.71932212 -3.52454517 22.67410943 -6 22 C-7.74155542 20.32356909 -8.81230182 18.73466914 -9.95605469 16.61132812 C-10.98300374 14.65886331 -10.98300374 14.65886331 -14 14 C-15.64176695 13.85747599 -17.28982655 13.77973245 -18.9375 13.75 C-20.21947266 13.71132812 -20.21947266 13.71132812 -21.52734375 13.671875 C-24.50804679 14.06741853 -25.8428526 14.93621433 -28 17 C-28.66666667 19.5 -28.66666667 19.5 -28 22 C-25.08706768 24.7071955 -22.58340478 25.52995244 -18.7109375 26.2109375 C-17.17373047 26.50097656 -17.17373047 26.50097656 -15.60546875 26.796875 C-13.47588494 27.17798553 -11.3456849 27.55567088 -9.21484375 27.9296875 C-1.22184569 29.44646116 6.47682795 31.5671657 12.4375 37.375 C15.8393931 43.09018041 18.13658963 48.26421095 17 55 C15.8662098 58.43081968 14.50676328 61.71740857 13 65 C12.34 65 11.68 65 11 65 C10.76410156 65.59554687 10.52820313 66.19109375 10.28515625 66.8046875 C7.29472269 71.91296611 0.39222476 74.88990215 -5.1875 76.375 C-17.14405801 78.39939077 -30.23833229 78.10151156 -40.6328125 71.26953125 C-45.66524322 67.10905634 -49.78078835 62.21156225 -52 56 C-52.18359375 53.29296875 -52.18359375 53.29296875 -52 51 C-49.38093039 48.38093039 -42.67397791 49.45266938 -39.16430664 49.39086914 C-32.71002693 49.50759743 -32.71002693 49.50759743 -29.4765625 51.75 C-28.04787916 53.78061591 -27.02397622 55.74725233 -26 58 C-23.04412889 59.47793555 -20.35002355 59.17053651 -17.0625 59.1875 C-15.19271484 59.20876953 -15.19271484 59.20876953 -13.28515625 59.23046875 C-9.85723703 59.26240498 -9.85723703 59.26240498 -7 57 C-5.94099756 54.55614822 -5.8642889 53.41947067 -6.6875 50.875 C-8.61369314 48.12329552 -10.91500201 47.27019309 -14.13134766 46.46923828 C-15.2612915 46.27177002 -15.2612915 46.27177002 -16.4140625 46.0703125 C-17.25316162 45.91699463 -18.09226074 45.76367676 -18.95678711 45.60571289 C-19.83729736 45.44707764 -20.71780762 45.28844238 -21.625 45.125 C-41.36248052 41.34585872 -41.36248052 41.34585872 -47 34 C-50.39958071 28.13865395 -50.71336578 22.69771204 -50 16 C-48.01338777 9.37795922 -44.07750836 4.28840366 -38.5625 0.1875 C-26.87957277 -5.22653945 -11.63396515 -5.91599504 0 0 Z M-44.25 8.4375 C-48.5090631 14.67398525 -48.74375594 20.63094441 -48 28 C-47.01871446 31.87607788 -45.34502135 34.13716832 -41.96923828 36.30273438 C-35.5181624 39.60639953 -29.35731158 41.27575143 -22.25 42.5625 C-9.79263343 44.83111952 -9.79263343 44.83111952 -5 49 C-3.8125 52.4375 -3.8125 52.4375 -4 56 C-6.50499726 59.20082983 -8.1382074 60.7127358 -12 62 C-17.97468289 62.60209983 -22.70367637 62.05557132 -28 59 C-28.72058594 57.9790625 -29.44117188 56.958125 -30.18359375 55.90625 C-31.71399464 54.00435338 -32.51486082 53.12455771 -34.89990234 52.51220703 C-37.06564802 52.41042661 -39.14989376 52.47425533 -41.3125 52.625 C-42.05306641 52.65207031 -42.79363281 52.67914063 -43.55664062 52.70703125 C-45.37235998 52.77731716 -47.18656801 52.88492911 -49 53 C-48.33949987 60.53153624 -45.61139262 64.13239936 -40 69 C-29.26890072 75.40008372 -15.51430855 75.65556 -3.484375 73.31640625 C3.4967373 70.96661845 8.51716301 67.28375215 12.9375 61.4375 C14.83387187 55.30217926 15.18085595 48.73341327 13.2265625 42.5546875 C10.06971062 36.66637513 5.22223802 33.96978278 -1 32 C-5.44689363 31.01833579 -9.92259948 30.20771496 -14.42382812 29.51855469 C-20.10968072 28.59884603 -24.27781165 27.37029688 -29 24 C-30.25 20.5625 -30.25 20.5625 -30 17 C-28.375 14.0625 -28.375 14.0625 -25 12 C-20.07972644 11.22609508 -14.57897163 10.57422707 -10.078125 13.0625 C-8.29080302 14.82879466 -7.11898348 16.76203304 -6 19 C-0.39 19 5.22 19 11 19 C9.91259274 11.38814915 8.62112994 8.80617058 3 4 C-11.03406656 -4.33422383 -32.76823636 -4.00107728 -44.25 8.4375 Z " fill="#FCFEFE" transform="translate(843,135)"/>
<path d="M0 0 C0 0.66 0 1.32 0 2 C0.99 2.33 1.98 2.66 3 3 C6.7360247 7.52851479 8.37209343 12.15185058 9 18 C8 19 8 19 6.05053711 19.11352539 C5.2178833 19.10828857 4.38522949 19.10305176 3.52734375 19.09765625 C2.62822266 19.09443359 1.72910156 19.09121094 0.80273438 19.08789062 C-0.14279297 19.07951172 -1.08832031 19.07113281 -2.0625 19.0625 C-3.01189453 19.05798828 -3.96128906 19.05347656 -4.93945312 19.04882812 C-7.29303065 19.0370011 -9.64648477 19.02052025 -12 19 C-12.42023437 18.04996094 -12.84046875 17.09992188 -13.2734375 16.12109375 C-15.41765119 12.24501516 -16.69865286 11.67835819 -20.7265625 10.390625 C-24.5765899 9.72910826 -28.19281913 10.26852775 -32 11 C-32 11.66 -32 12.32 -32 13 C-32.66 13 -33.32 13 -34 13 C-33.67 15.64 -33.34 18.28 -33 21 C-32.29504395 21.13051758 -31.59008789 21.26103516 -30.86376953 21.39550781 C-27.61544263 22.00313915 -24.37030969 22.62646297 -21.125 23.25 C-20.01640625 23.45496094 -18.9078125 23.65992188 -17.765625 23.87109375 C-7.27822634 25.9068829 2.29545131 28.12575771 9 37 C11.93387326 42.61262711 11.96332864 49.97358733 10.5 56.08984375 C7.71612722 63.3184225 0.90373396 68.82661385 -6 72 C-18.1035937 75.63107811 -31.73908795 75.54717444 -43.171875 69.93359375 C-48.93614853 66.65055826 -53.17923278 62.31048585 -56.375 56.5 C-57 54 -57 54 -57 47 C-50.4 47 -43.8 47 -37 47 C-35.68 49.31 -34.36 51.62 -33 54 C-29.65567055 56.63645842 -26.0747831 56.23535501 -21.9375 56.1875 C-20.09478516 56.17783203 -20.09478516 56.17783203 -18.21484375 56.16796875 C-14.98267639 56.14216872 -14.98267639 56.14216872 -12 55 C-12 52.36 -12 49.72 -12 47 C-17.13770303 44.03658633 -21.99747685 43.06417513 -27.75 42.0625 C-46.89716911 38.42803554 -46.89716911 38.42803554 -52.94140625 30.5859375 C-56.59185221 25.1170037 -55.43469562 17.33773614 -55 11 C-53.41808963 4.89402749 -47.98845186 0.52663446 -43 -3 C-30.02600352 -10.13830328 -11.98237972 -7.98825315 0 0 Z M-50 6 C-53.67010546 11.32757244 -54.73694449 17.88598948 -53.59765625 24.24609375 C-52.04445994 29.10787392 -49.55664681 32.56333752 -45 35 C-39.25820075 37.27808849 -33.33131476 38.74497091 -27.29296875 39.99609375 C-26.48891602 40.16423584 -25.68486328 40.33237793 -24.85644531 40.50561523 C-23.27169918 40.82950612 -21.6837551 41.13820749 -20.09277344 41.42993164 C-15.63254923 42.32344689 -12.78444805 43.12346972 -10 47 C-9.42562977 51.02059163 -9.3100824 53.06368326 -11.75 56.375 C-16.09704749 59.5145343 -20.74806237 59.51377651 -26 59 C-28.92323558 58.37510544 -31.50689499 57.66556175 -34 56 C-34.556875 54.9790625 -35.11375 53.958125 -35.6875 52.90625 C-37.60474911 49.89624225 -37.60474911 49.89624225 -39.90917969 49.51220703 C-42.21553181 49.40932714 -44.44635018 49.47600772 -46.75 49.625 C-47.54277344 49.65207031 -48.33554687 49.67914063 -49.15234375 49.70703125 C-51.10273366 49.77752727 -53.05171901 49.88514501 -55 50 C-54.15414097 56.83492983 -51.43402417 61.1890565 -46.10546875 65.55078125 C-36.0220546 72.29294574 -23.69144456 72.00268417 -12 71 C-4.08580815 69.38218178 2.0971756 66.10399312 6.8125 59.4375 C9.47964329 53.96283746 10.22304096 47.60575288 8.24609375 41.77734375 C5.5374245 36.09444945 2.37589028 32.13631186 -3.6875 29.9375 C-9.34679301 27.98496764 -15.07514644 26.97212761 -20.98510742 26.12670898 C-26.40651196 25.30425118 -31.00532036 23.99467964 -35 20 C-35.55882353 13.85294118 -35.55882353 13.85294118 -33.8125 11.1875 C-29.10054539 8.10035733 -25.64932439 7.73684792 -20.15234375 8.5234375 C-17.26735093 9.16221994 -15.28626932 10.12941601 -13 12 C-12.34 13.32 -11.68 14.64 -11 16 C-5.39 16 0.22 16 6 16 C4.92297337 9.53784023 3.42180577 6.49519382 -1.0625 1.875 C-15.86386183 -7.57267776 -37.81754349 -7.58812457 -50 6 Z " fill="#FDFEFE" transform="translate(640,138)"/>
<path d="M0 0 C7.70182523 8.74791355 10.12612241 19.34326891 10.55078125 30.73828125 C10.30078125 33.61328125 10.30078125 33.61328125 8.30078125 35.61328125 C6.16207886 35.85379028 6.16207886 35.85379028 3.48388672 35.84033203 C2.48300018 35.84018097 1.48211365 35.84002991 0.45089722 35.83987427 C-1.17415237 35.82439041 -1.17415237 35.82439041 -2.83203125 35.80859375 C-3.9390036 35.80576385 -5.04597595 35.80293396 -6.18649292 35.80001831 C-9.73251012 35.78879644 -13.2782775 35.76368816 -16.82421875 35.73828125 C-19.22395469 35.72825405 -21.62369458 35.71912775 -24.0234375 35.7109375 C-29.91545026 35.68885057 -35.80731666 35.65535332 -41.69921875 35.61328125 C-41.41232902 37.05357325 -41.11627958 38.49204264 -40.81640625 39.9296875 C-40.65253418 40.73092041 -40.48866211 41.53215332 -40.31982422 42.35766602 C-39.27242907 46.16446532 -37.25459609 48.63944986 -33.93359375 50.71875 C-29.07949138 52.66208819 -22.53554889 52.71208854 -17.65234375 50.8203125 C-14.96477145 49.08403436 -13.47677426 47.27961452 -11.69921875 44.61328125 C-9.63623047 44.27270508 -9.63623047 44.27270508 -7.12890625 44.3203125 C-6.23300781 44.32998047 -5.33710938 44.33964844 -4.4140625 44.34960938 C-3.00833984 44.38731445 -3.00833984 44.38731445 -1.57421875 44.42578125 C-0.15689453 44.44608398 -0.15689453 44.44608398 1.2890625 44.46679688 C3.62686904 44.50221819 5.96354362 44.55160854 8.30078125 44.61328125 C7.30970982 52.26506696 7.30970982 52.26506696 5.30078125 55.61328125 C4.64078125 55.61328125 3.98078125 55.61328125 3.30078125 55.61328125 C2.31078125 57.59328125 2.31078125 57.59328125 1.30078125 59.61328125 C0.64078125 59.61328125 -0.01921875 59.61328125 -0.69921875 59.61328125 C-0.69921875 60.27328125 -0.69921875 60.93328125 -0.69921875 61.61328125 C-10.70562901 69.15909882 -20.45022935 70.4960913 -32.69921875 69.61328125 C-42.79436983 67.83830963 -51.26020286 62.55964947 -57.69921875 54.61328125 C-59.27718707 52.03249195 -60.5438605 49.40585331 -61.69921875 46.61328125 C-62.03928955 45.86353027 -62.37936035 45.1137793 -62.72973633 44.34130859 C-64.45608699 39.48352913 -64.06828782 34.46980881 -64.07421875 29.36328125 C-64.09871094 28.26886719 -64.12320312 27.17445313 -64.1484375 26.046875 C-64.19034423 14.38283503 -60.00392543 6.3207456 -52.109375 -2.078125 C-36.99926734 -16.2638496 -14.21251306 -13.50520293 0 0 Z M-54.69921875 3.61328125 C-60.3839174 11.84773444 -62.06087212 19.48677555 -62.07421875 29.36328125 C-62.09871094 30.30171875 -62.12320312 31.24015625 -62.1484375 32.20703125 C-62.1931294 42.99267713 -58.60088511 50.65027002 -51.20703125 58.41015625 C-41.91730071 66.57122794 -31.43596426 67.19176223 -19.62744141 66.74511719 C-10.33596926 66.10984307 -3.60396676 61.72354231 2.67578125 55.11328125 C4.46402129 52.36214272 5.31614687 49.72986312 6.30078125 46.61328125 C3.56921166 46.45065197 0.84736003 46.33217439 -1.88671875 46.23828125 C-2.65564453 46.18800781 -3.42457031 46.13773438 -4.21679688 46.0859375 C-8.56959016 45.9056675 -8.56959016 45.9056675 -12.25146484 47.92504883 C-13.46209922 49.44073752 -14.58476293 51.02553567 -15.69921875 52.61328125 C-22.26438 55.51710257 -28.30731878 54.72217163 -34.94921875 52.55078125 C-38.71027938 49.90094308 -41.03063142 46.90773312 -42.69921875 42.61328125 C-43.02921875 39.64328125 -43.35921875 36.67328125 -43.69921875 33.61328125 C-18.45421875 33.11828125 -18.45421875 33.11828125 7.30078125 32.61328125 C7.30078125 19.72552951 6.27028003 10.22061362 -2.44921875 0.703125 C-9.46030609 -5.95458092 -16.43496397 -8.58149209 -26.07421875 -8.88671875 C-37.790727 -8.50876687 -46.92820505 -5.41574492 -54.69921875 3.61328125 Z " fill="#FCFEFE" transform="translate(455.69921875,142.38671875)"/>
<path d="M0 0 C6.02776733 4.40153608 10.70970933 9.27748455 14 16 C14.31839844 16.64066406 14.63679687 17.28132813 14.96484375 17.94140625 C17.95872542 25.21226173 17.47798559 33.27869439 17 41 C16 42 16 42 13.94358826 42.12025452 C13.03979935 42.11803391 12.13601044 42.11581329 11.20483398 42.11352539 C10.18385117 42.11344986 9.16286835 42.11337433 8.11094666 42.11329651 C7.0005452 42.10813522 5.89014374 42.10297394 4.74609375 42.09765625 C3.61551041 42.0962413 2.48492706 42.09482635 1.32008362 42.09336853 C-2.30747065 42.08775019 -5.93496424 42.07519458 -9.5625 42.0625 C-12.01497307 42.05748736 -14.4674471 42.05292405 -16.91992188 42.04882812 C-22.94663545 42.0377748 -28.97331339 42.02101884 -35 42 C-34.39729081 43.78180839 -33.7831063 45.55973811 -33.1640625 47.3359375 C-32.8232666 48.3264209 -32.4824707 49.3169043 -32.13134766 50.33740234 C-30.39566635 54.42228372 -27.84056174 56.07971913 -24 58 C-22.06640414 58.14851844 -20.12657903 58.22130833 -18.1875 58.25 C-17.14980469 58.27578125 -16.11210938 58.3015625 -15.04296875 58.328125 C-11.54380845 57.95080861 -9.79668794 57.10819939 -7 55 C-6.55382324 54.31228516 -6.10764648 53.62457031 -5.64794922 52.91601562 C-4 51 -4 51 -1.82348633 50.54589844 C-1.00130615 50.5668457 -0.17912598 50.58779297 0.66796875 50.609375 C1.56064453 50.62226563 2.45332031 50.63515625 3.37304688 50.6484375 C4.30181641 50.68195313 5.23058594 50.71546875 6.1875 50.75 C7.59805664 50.77707031 7.59805664 50.77707031 9.03710938 50.8046875 C11.35909889 50.8518345 13.6790369 50.91761769 16 51 C16.33 51.66 16.66 52.32 17 53 C14.13894845 61.58315464 8.30913743 67.92519711 0.33203125 71.93359375 C-0.43753906 72.28550781 -1.20710937 72.63742188 -2 73 C-2.67675781 73.32097656 -3.35351562 73.64195312 -4.05078125 73.97265625 C-14.11654554 78.04824819 -25.50617536 76.9354029 -35.45703125 73.1484375 C-38.66508208 71.69964035 -41.29333463 70.25555447 -44 68 C-44 67.34 -44 66.68 -44 66 C-44.8353125 65.7215625 -44.8353125 65.7215625 -45.6875 65.4375 C-51.39544887 61.88931557 -54.25970589 55.29092803 -56 49 C-58.43836334 36.72351789 -58.07731015 23.14125399 -51.375 12.25 C-40.00994681 -3.17400076 -17.41617959 -11.33484449 0 0 Z M-47.25 10.3125 C-54.95111761 19.77627123 -56.04742508 31.20915344 -55 43 C-53.23055419 52.69997401 -49.59840915 60.82369478 -41.5703125 66.8125 C-34.20422987 71.46947625 -27.28159239 73.38061617 -18.625 73.3125 C-17.87476563 73.30686035 -17.12453125 73.3012207 -16.3515625 73.29541016 C-6.76498941 73.08528779 0.58224849 70.18145959 8 64 C11.01854489 60.67960062 13.0726573 57.42419748 14 53 C11.24835568 52.86482097 8.50335479 52.76584749 5.75 52.6875 C4.58404297 52.6246582 4.58404297 52.6246582 3.39453125 52.56054688 C1.16027921 52.51280645 -0.81240703 52.53582116 -3 53 C-5.40032753 55.30182354 -5.40032753 55.30182354 -7 58 C-11.87964515 60.72134057 -16.45323787 61.95087351 -22 61 C-27.26125404 59.21749863 -31.0287217 56.79975726 -34 52 C-35.90885683 47.51418645 -36 45.10419834 -36 40 C-10.755 39.505 -10.755 39.505 15 39 C15 25.69639017 13.38305197 16.27123867 4.44140625 6.25390625 C-2.10485114 -0.0411758 -10.14956631 -2.21467666 -19.0625 -2.4375 C-30.96302961 -2.03431266 -39.15658574 1.59184613 -47.25 10.3125 Z " fill="#FDFEFE" transform="translate(560,136)"/>
<path d="M0 0 C0.89009766 -0.00128906 1.78019531 -0.00257812 2.69726562 -0.00390625 C3.63376953 -0.00003906 4.57027344 0.00382812 5.53515625 0.0078125 C6.46779297 0.00394531 7.40042969 0.00007813 8.36132812 -0.00390625 C9.25271484 -0.00261719 10.14410156 -0.00132813 11.0625 0 C11.88355225 0.00112793 12.70460449 0.00225586 13.55053711 0.00341797 C15.59765625 0.1328125 15.59765625 0.1328125 17.59765625 1.1328125 C17.62077715 14.28430274 17.63857004 27.43578819 17.64946842 40.58729458 C17.65469781 46.69337619 17.66179645 52.79944394 17.6730957 58.90551758 C17.68392262 64.79286397 17.68993267 70.68019699 17.69253349 76.56755257 C17.6943881 78.81913527 17.69800938 81.07071719 17.70338631 83.32229424 C17.71059414 86.46414677 17.7116473 89.60594333 17.71118164 92.74780273 C17.71477692 93.68863205 17.71837219 94.62946136 17.72207642 95.59880066 C17.71170841 102.01876034 17.71170841 102.01876034 16.59765625 103.1328125 C15.04810066 103.23180773 13.49411952 103.26360774 11.94140625 103.265625 C10.53181641 103.26755859 10.53181641 103.26755859 9.09375 103.26953125 C7.61068359 103.26373047 7.61068359 103.26373047 6.09765625 103.2578125 C5.10894531 103.26167969 4.12023437 103.26554687 3.1015625 103.26953125 C2.16183594 103.26824219 1.22210938 103.26695312 0.25390625 103.265625 C-0.61427734 103.26449707 -1.48246094 103.26336914 -2.37695312 103.26220703 C-4.40234375 103.1328125 -4.40234375 103.1328125 -5.40234375 102.1328125 C-5.50302792 99.00257766 -5.53848535 95.8943633 -5.53173828 92.76367188 C-5.5334906 91.78002151 -5.53524292 90.79637115 -5.53704834 89.78291321 C-5.5414688 86.51411197 -5.53852818 83.24536434 -5.53515625 79.9765625 C-5.53582923 77.71594228 -5.53679921 75.45532212 -5.53805542 73.19470215 C-5.53953266 68.44994418 -5.53737701 63.70520501 -5.53271484 58.96044922 C-5.52701755 52.86342626 -5.53029641 46.76644731 -5.53628731 40.66942596 C-5.53989223 35.99932521 -5.53875465 31.32923497 -5.53615952 26.65913391 C-5.53549005 24.41034439 -5.53631933 22.16155393 -5.53863907 19.9127655 C-5.54116446 16.77580212 -5.5373266 13.63891109 -5.53173828 10.50195312 C-5.53376251 9.56269485 -5.53578674 8.62343658 -5.53787231 7.65571594 C-5.5124929 0.00758327 -5.5124929 0.00758327 0 0 Z M-2.40234375 3.1328125 C-2.40234375 35.4728125 -2.40234375 67.8128125 -2.40234375 101.1328125 C3.20765625 101.1328125 8.81765625 101.1328125 14.59765625 101.1328125 C14.59765625 68.7928125 14.59765625 36.4528125 14.59765625 3.1328125 C8.98765625 3.1328125 3.37765625 3.1328125 -2.40234375 3.1328125 Z " fill="#F9FBFB" transform="translate(478.40234375,106.8671875)"/>
<path d="M0 0 C1.11375 0.09023437 2.2275 0.18046875 3.375 0.2734375 C6 0.625 6 0.625 7 1.625 C7.08669432 3.1137186 7.10703494 4.606445 7.09765625 6.09765625 C7.09443359 6.99677734 7.09121094 7.89589844 7.08789062 8.82226562 C7.07532227 10.24055664 7.07532227 10.24055664 7.0625 11.6875 C7.05798828 12.63689453 7.05347656 13.58628906 7.04882812 14.56445312 C7.0370011 16.91803065 7.02052025 19.27148477 7 21.625 C8.06347656 21.45097656 9.12695312 21.27695313 10.22265625 21.09765625 C14.51932787 20.56001688 17.75688574 20.95503459 22 21.625 C22.02684679 24.27090014 22.04676357 26.91653096 22.0625 29.5625 C22.07087891 30.31724609 22.07925781 31.07199219 22.08789062 31.84960938 C22.09652441 33.77494313 22.05224333 35.70035581 22 37.625 C20.05909174 39.56590826 16.52706098 39.02419435 13.9375 39.1875 C12.64714844 39.27128906 11.35679687 39.35507813 10.02734375 39.44140625 C9.02832031 39.50199219 8.02929688 39.56257813 7 39.625 C6.95051367 44.67869645 6.91423955 49.73225142 6.89013672 54.78613281 C6.8800873 56.50490781 6.86644555 58.22366575 6.84912109 59.94238281 C6.82482609 62.41475641 6.81350632 64.88690369 6.8046875 67.359375 C6.79436493 68.12618591 6.78404236 68.89299683 6.77340698 69.68304443 C6.72841406 74.9893647 6.72841406 74.9893647 9 79.625 C11.58185317 80.29226669 11.58185317 80.29226669 14.5 80.3125 C19.86956522 80.55978261 19.86956522 80.55978261 22 81.625 C22 86.575 22 91.525 22 96.625 C12.18056647 99.43055244 1.38595642 100.54812426 -8 95.625 C-13.38628028 91.76092936 -14.61538498 86.84312127 -16 80.625 C-16.35168949 77.2242473 -16.35396772 73.87684018 -16.29296875 70.4609375 C-16.28872391 69.54285309 -16.28447906 68.62476868 -16.28010559 67.67886353 C-16.26349497 64.78559322 -16.22587775 61.8930549 -16.1875 59 C-16.17243032 57.02214557 -16.15874595 55.04428008 -16.14648438 53.06640625 C-16.11364953 48.25232798 -16.06199238 43.43878749 -16 38.625 C-19.63 38.625 -23.26 38.625 -27 38.625 C-27.19436491 36.16703147 -27.3807742 33.70890706 -27.5625 31.25 C-27.61857422 30.55132812 -27.67464844 29.85265625 -27.73242188 29.1328125 C-28.11328125 23.8515625 -28.11328125 23.8515625 -27 21.625 C-23.37 21.625 -19.74 21.625 -16 21.625 C-16 14.695 -16 7.765 -16 0.625 C-10.06405686 -0.03454924 -5.71154271 -0.49841293 0 0 Z M-14 2.625 C-14.33 9.225 -14.66 15.825 -15 22.625 C-19.95 23.12 -19.95 23.12 -25 23.625 C-25 27.585 -25 31.545 -25 35.625 C-23.535625 35.769375 -22.07125 35.91375 -20.5625 36.0625 C-16.125 36.5 -16.125 36.5 -15 37.625 C-14.86414425 40.4634489 -14.78926734 43.28086329 -14.75390625 46.12109375 C-14.72092593 47.89518645 -14.68771509 49.66927487 -14.65429688 51.44335938 C-14.60718106 54.24076928 -14.56284488 57.03816741 -14.52319336 59.83569336 C-14.48303152 62.53519432 -14.43155379 65.23431123 -14.37890625 67.93359375 C-14.3704921 68.75379501 -14.36207794 69.57399628 -14.35340881 70.41905212 C-14.20299114 77.62130508 -13.66933055 84.75583812 -10 91.0625 C-3.4378172 96.66769781 3.35035051 96.88376432 11.625 96.3125 C14.08781923 96.11258961 16.54180255 95.87813944 19 95.625 C19 91.665 19 87.705 19 83.625 C17.5975 83.521875 16.195 83.41875 14.75 83.3125 C11.03941591 82.89826813 8.62603063 82.46986652 6 79.625 C5.11434414 76.96803242 4.8549738 75.34309917 4.79467773 72.61254883 C4.77473251 71.81194534 4.75478729 71.01134186 4.73423767 70.18647766 C4.71752518 69.32701035 4.70081268 68.46754303 4.68359375 67.58203125 C4.66281265 66.6984343 4.64203156 65.81483734 4.62062073 64.90446472 C4.55524246 62.08222215 4.49629472 59.25988665 4.4375 56.4375 C4.39430363 54.52407894 4.35068898 52.61066727 4.30664062 50.69726562 C4.19957305 46.00660563 4.09827248 41.31585217 4 36.625 C11.92 36.13 11.92 36.13 20 35.625 C20 31.665 20 27.705 20 23.625 C15.05 23.295 10.1 22.965 5 22.625 C4.505 12.725 4.505 12.725 4 2.625 C-1.94 2.625 -7.88 2.625 -14 2.625 Z " fill="#FCFEFE" transform="translate(679,112.375)"/>
<path d="M0 0 C1.33417969 -0.00386719 1.33417969 -0.00386719 2.6953125 -0.0078125 C4.875 0.125 4.875 0.125 5.875 1.125 C5.97380797 2.60152664 6.00579245 4.08267236 6.0078125 5.5625 C6.00974609 6.90441406 6.00974609 6.90441406 6.01171875 8.2734375 C6.00785156 9.21445313 6.00398437 10.15546875 6 11.125 C6.00580078 12.53652344 6.00580078 12.53652344 6.01171875 13.9765625 C6.01042969 14.87117187 6.00914062 15.76578125 6.0078125 16.6875 C6.00668457 17.51378906 6.00555664 18.34007812 6.00439453 19.19140625 C5.875 21.125 5.875 21.125 4.875 22.125 C1.41449825 22.37250609 -2.04527118 22.50934034 -5.51171875 22.6484375 C-9.48053107 23.17189167 -11.81360822 23.87417986 -15.125 26.125 C-19.26478757 31.88667694 -19.71364985 36.41751863 -19.69921875 43.3984375 C-19.72046562 44.84496201 -19.72046562 44.84496201 -19.74214172 46.32070923 C-19.78386523 49.38058841 -19.79925793 52.43987696 -19.8125 55.5 C-19.8415324 58.58127366 -19.87599261 61.66239768 -19.91499329 64.74356079 C-19.93753235 66.65655733 -19.95332018 68.56964721 -19.96183777 70.48275757 C-19.97238945 71.77012314 -19.97238945 71.77012314 -19.9831543 73.08349609 C-19.98837349 74.22097794 -19.98837349 74.22097794 -19.99369812 75.38143921 C-20.125 77.125 -20.125 77.125 -21.125 78.125 C-22.60152664 78.22380797 -24.08267236 78.25579245 -25.5625 78.2578125 C-26.90441406 78.25974609 -26.90441406 78.25974609 -28.2734375 78.26171875 C-29.68496094 78.25591797 -29.68496094 78.25591797 -31.125 78.25 C-32.53652344 78.25580078 -32.53652344 78.25580078 -33.9765625 78.26171875 C-34.87117187 78.26042969 -35.76578125 78.25914062 -36.6875 78.2578125 C-37.51378906 78.25668457 -38.34007812 78.25555664 -39.19140625 78.25439453 C-41.125 78.125 -41.125 78.125 -42.125 77.125 C-42.21992722 74.78246218 -42.25059791 72.46953896 -42.23852539 70.12670898 C-42.23867142 69.39504517 -42.23881744 68.66338135 -42.2389679 67.9095459 C-42.23826867 65.48003216 -42.23047585 63.05059417 -42.22265625 60.62109375 C-42.2207921 58.94100486 -42.21936819 57.26091543 -42.21836853 55.58082581 C-42.21454307 51.15026357 -42.20471256 46.7197339 -42.19366455 42.28918457 C-42.18345103 37.77157024 -42.17887104 33.25395066 -42.17382812 28.73632812 C-42.16309031 19.86587107 -42.14601356 10.99543824 -42.125 2.125 C-36.16087096 -0.85706452 -26.57677322 0.9246701 -20.125 2.125 C-19.795 4.765 -19.465 7.405 -19.125 10.125 C-18.42375 9.3825 -17.7225 8.64 -17 7.875 C-11.7454529 2.84891147 -7.31566284 -0.02132846 0 0 Z M-13.9296875 7.80859375 C-15.41776846 9.52988143 -16.79116832 11.28243124 -18.125 13.125 C-18.74375 13.929375 -19.3625 14.73375 -20 15.5625 C-20.37125 16.078125 -20.7425 16.59375 -21.125 17.125 C-22.125 16.125 -22.125 16.125 -22.22265625 13.40234375 C-22.19010417 10.30989583 -22.15755208 7.21744792 -22.125 4.125 C-28.065 4.125 -34.005 4.125 -40.125 4.125 C-40.125 27.885 -40.125 51.645 -40.125 76.125 C-34.185 76.125 -28.245 76.125 -22.125 76.125 C-22.12089111 74.83400391 -22.11678223 73.54300781 -22.11254883 72.21289062 C-22.09068248 67.39673617 -22.03631477 62.58138997 -21.97241211 57.765625 C-21.94929747 55.68627706 -21.93485182 53.60681313 -21.92944336 51.52734375 C-21.92010606 48.52791606 -21.87901064 45.53029638 -21.83203125 42.53125 C-21.8359639 41.61009399 -21.83989655 40.68893799 -21.84394836 39.73986816 C-21.70204201 33.38030995 -20.24474442 29.03870934 -16.125 24.125 C-11.5589822 20.67264508 -7.50055269 19.98847957 -1.875 20.0625 C-0.3075 20.083125 1.26 20.10375 2.875 20.125 C2.875 14.185 2.875 8.245 2.875 2.125 C-3.85991274 2.125 -8.89782488 3.11436693 -13.9296875 7.80859375 Z " fill="#FAFCFE" transform="translate(750.125,131.875)"/>
<path d="M0 0 C3.32087342 1.79327165 4.47842513 3.12280591 6.375 6.3125 C7.21219504 9.91243865 6.89539601 12.41841597 6 16 C4.17660948 18.70567626 2.92542564 20.53728718 0 22 C-10.53768433 23.08956854 -10.53768433 23.08956854 -15.1875 19.625 C-18.1014091 15.40485578 -18.55549465 12.07741601 -18 7 C-14.28837087 -1.13023524 -8.0407895 -0.88014047 0 0 Z " fill="#E3E9F9" transform="translate(780,102)"/>
<path d="M0 0 C0.234375 2.3203125 0.234375 2.3203125 0 5 C-1.609375 6.5546875 -1.609375 6.5546875 -3.75 7.875 C-9.26290419 11.6998822 -11.33249769 15.24099046 -12.9375 21.875 C-13.70322277 31.81025297 -7.31205076 39.66511003 -1.609375 47.12890625 C-1.19896973 47.66668701 -0.78856445 48.20446777 -0.36572266 48.75854492 C0.82717876 50.31269688 2.03440378 51.85582265 3.2421875 53.3984375 C5 56 5 56 5 59 C0.66155142 60.44614953 -2.42126446 58.5922576 -6.5 57 C-8.22509799 56.34332316 -9.95036316 55.68708534 -11.67578125 55.03125 C-12.55959473 54.69222656 -13.4434082 54.35320312 -14.35400391 54.00390625 C-16.86702897 53.05044998 -19.38852112 52.127619 -21.91796875 51.21875 C-29.62382613 48.44900389 -37.27637703 45.58148598 -44.8125 42.375 C-45.4521167 42.11009766 -46.0917334 41.84519531 -46.75073242 41.57226562 C-51.7612381 39.38664043 -56.17049458 36.57793946 -59.375 32.0625 C-60.26599612 29.1222128 -60.43718358 27.06028506 -60 24 C-54.37777034 16.62082358 -44.9238593 14.11095001 -36.4453125 11.328125 C-35.46255341 11.00084412 -34.47979431 10.67356323 -33.46725464 10.33636475 C-31.40587379 9.65123989 -29.34352873 8.96900989 -27.28027344 8.28955078 C-24.11157638 7.24557739 -20.94623774 6.19187787 -17.78125 5.13671875 C-15.77362626 4.47078483 -13.76582014 3.80540044 -11.7578125 3.140625 C-10.80891144 2.82506653 -9.86001038 2.50950806 -8.88235474 2.18438721 C-8.00739349 1.89698669 -7.13243225 1.60958618 -6.23095703 1.31347656 C-5.07468307 0.93186371 -5.07468307 0.93186371 -3.89505005 0.5425415 C-2 0 -2 0 0 0 Z M-15.03515625 6.50390625 C-16.0003418 6.82907227 -16.96552734 7.15423828 -17.95996094 7.48925781 C-18.98379883 7.84342773 -20.00763672 8.19759766 -21.0625 8.5625 C-22.11856445 8.92311523 -23.17462891 9.28373047 -24.26269531 9.65527344 C-26.44134881 10.40065384 -28.61891759 11.149212 -30.79541016 11.90087891 C-33.81930526 12.9380247 -36.85080189 13.94790785 -39.88671875 14.94921875 C-41.6746704 15.54890933 -43.46244064 16.14914111 -45.25 16.75 C-46.48955444 17.15327515 -46.48955444 17.15327515 -47.75415039 17.56469727 C-52.0287383 19.0263827 -55.19554945 20.25827256 -58 24 C-58.61381743 27.60617743 -58.35357036 29.36972239 -56.5625 32.5625 C-49.66208281 39.12631147 -40.10942857 42.13347738 -31.375 45.5 C-30.12440446 45.9860174 -28.87383494 46.47210176 -27.62329102 46.95825195 C-13.69472065 53.13961566 -13.69472065 53.13961566 1 56 C-0.39755872 51.82227099 -2.38434695 49.20029911 -5.3125 45.9375 C-10.62759437 39.57653222 -14.96128457 32.33311715 -15.625 23.875 C-14.79123665 18.70566726 -12.82958475 14.39871811 -10 10 C-9.34 9.67 -8.68 9.34 -8 9 C-8 8.34 -8 7.68 -8 7 C-7.01 6.67 -6.02 6.34 -5 6 C-5 5.67 -5 5.34 -5 5 C-8.7018324 4.84077696 -11.53545893 5.31020334 -15.03515625 6.50390625 Z " fill="#FDFEFE" transform="translate(192,129)"/>
<path d="M0 0 C0.79664063 -0.00128906 1.59328125 -0.00257813 2.4140625 -0.00390625 C3.24679687 -0.00003906 4.07953125 0.00382813 4.9375 0.0078125 C6.18660156 0.00201172 6.18660156 0.00201172 7.4609375 -0.00390625 C8.25757813 -0.00261719 9.05421875 -0.00132812 9.875 0 C10.60589844 0.00112793 11.33679688 0.00225586 12.08984375 0.00341797 C13.9375 0.1328125 13.9375 0.1328125 15.9375 1.1328125 C15.9375 26.2128125 15.9375 51.2928125 15.9375 77.1328125 C9.0075 77.1328125 2.0775 77.1328125 -5.0625 77.1328125 C-6.72415207 75.47116043 -6.18209725 73.4676522 -6.18692017 71.24879456 C-6.18332489 70.55108444 -6.17972961 69.85337433 -6.17602539 69.13452148 C-6.17617142 68.40285767 -6.17631744 67.67119385 -6.1764679 66.9173584 C-6.17576867 64.48784466 -6.16797585 62.05840667 -6.16015625 59.62890625 C-6.1582921 57.94881736 -6.15686819 56.26872793 -6.15586853 54.58863831 C-6.15204307 50.15807607 -6.14221256 45.7275464 -6.13116455 41.29699707 C-6.12095103 36.77938274 -6.11637104 32.26176316 -6.11132812 27.74414062 C-6.10059031 18.87368357 -6.08351356 10.00325074 -6.0625 1.1328125 C-3.79176921 -0.0025529 -2.51966721 0.00388838 0 0 Z M-4.0625 3.1328125 C-4.0625 26.8928125 -4.0625 50.6528125 -4.0625 75.1328125 C1.8775 75.1328125 7.8175 75.1328125 13.9375 75.1328125 C13.9375 51.3728125 13.9375 27.6128125 13.9375 3.1328125 C7.9975 3.1328125 2.0575 3.1328125 -4.0625 3.1328125 Z " fill="#EFF3FE" transform="translate(769.0625,132.8671875)"/>
<path d="M0 0 C4.82924916 2.73353726 7.42422558 5.89657062 9.6875 10.9375 C10.3125 13.875 10.3125 13.875 9.3125 18.875 C-1.5775 18.875 -12.4675 18.875 -23.6875 18.875 C-24.97848503 13.71105988 -24.0890424 10.56449834 -21.6875 5.875 C-15.60496659 -1.03957807 -8.78157727 -2.67912527 0 0 Z M-17.9375 4.3125 C-21.52688717 8.32420784 -21.52688717 8.32420784 -21.6875 16.875 C-11.7875 16.875 -1.8875 16.875 8.3125 16.875 C6.28974561 8.53988478 6.28974561 8.53988478 1.3125 2.875 C-4.25788719 0.08980641 -12.96366309 0.55356689 -17.9375 4.3125 Z " fill="#FCFDFE" transform="translate(435.6875,147.125)"/>
<path d="M0 0 C2.83271028 2.70270667 4.73562311 5.27232779 5.3359375 9.1953125 C5.375 11.375 5.375 11.375 5 15 C3.32326351 16.67673649 1.27144924 16.12787817 -0.96655273 16.13894653 C-1.65821533 16.1369223 -2.34987793 16.13489807 -3.0625 16.1328125 C-3.76898682 16.13376923 -4.47547363 16.13472595 -5.20336914 16.13571167 C-6.69970793 16.13639333 -8.19604967 16.13454005 -9.69238281 16.13037109 C-11.99030157 16.12502257 -14.28802486 16.13031651 -16.5859375 16.13671875 C-18.03645877 16.13605797 -19.48697991 16.1347768 -20.9375 16.1328125 C-21.9749939 16.13584885 -21.9749939 16.13584885 -23.03344727 16.13894653 C-27.88504776 16.11495224 -27.88504776 16.11495224 -29 15 C-28.63603909 7.84210217 -26.89129305 3.67444607 -21.5 -1.3125 C-14.54377327 -6.00795305 -6.61491716 -4.69133246 0 0 Z M-22 1 C-25.09960422 4.89664531 -26.65177578 8.00878615 -27 13 C-25.90812017 14.31775285 -25.90812017 14.31775285 -23.22436523 14.11352539 C-21.40980835 14.10567017 -21.40980835 14.10567017 -19.55859375 14.09765625 C-18.25341797 14.09443359 -16.94824219 14.09121094 -15.60351562 14.08789062 C-14.2148431 14.07953401 -12.82617123 14.07106905 -11.4375 14.0625 C-10.04492344 14.05748666 -8.65234519 14.05292347 -7.25976562 14.04882812 C-3.8398013 14.03699434 -0.41992156 14.0205088 3 14 C2.87367188 12.73929688 2.74734375 11.47859375 2.6171875 10.1796875 C2.51059814 9.11596924 2.51059814 9.11596924 2.40185547 8.03076172 C1.78798684 4.92859933 0.19729187 3.19729187 -2 1 C-5.55965981 -1.37310654 -7.21962224 -1.26915041 -11.4375 -1.25 C-12.57058594 -1.25515625 -13.70367188 -1.2603125 -14.87109375 -1.265625 C-17.88929154 -1.00939847 -19.51261069 -0.66576298 -22 1 Z " fill="#FDFEFF" transform="translate(552,150)"/>
<path d="M0 0 C0.33 0 0.66 0 1 0 C1.495 36.63 1.495 36.63 2 74 C-4.93 74 -11.86 74 -19 74 C-20.29424958 71.41150084 -20.08124712 69.620693 -20.02172852 66.72412109 C-19.99158409 65.07263565 -19.99158409 65.07263565 -19.96083069 63.38778687 C-19.93379562 62.19505157 -19.90676056 61.00231628 -19.87890625 59.7734375 C-19.85529526 58.55548492 -19.83168427 57.33753235 -19.80735779 56.08267212 C-19.73058376 52.18000019 -19.64661843 48.27751988 -19.5625 44.375 C-19.50929309 41.73438448 -19.45655261 39.09375952 -19.40429688 36.453125 C-19.27495004 29.9686306 -19.13969354 23.48427931 -19 17 C-18.67 17 -18.34 17 -18 17 C-18 35.15 -18 53.3 -18 72 C-12.06 72 -6.12 72 0 72 C0 48.24 0 24.48 0 0 Z " fill="#FEFEFF" transform="translate(783,136)"/>
<path d="M0 0 C3.32087342 1.79327165 4.47842513 3.12280591 6.375 6.3125 C7.21219504 9.91243865 6.89539601 12.41841597 6 16 C4.17660948 18.70567626 2.92542564 20.53728718 0 22 C-10.53768433 23.08956854 -10.53768433 23.08956854 -15.1875 19.625 C-18.1014091 15.40485578 -18.55549465 12.07741601 -18 7 C-14.28837087 -1.13023524 -8.0407895 -0.88014047 0 0 Z M-14.1875 4.5 C-16.15604927 8.30133653 -16.5019214 10.07698241 -15.625 14.1640625 C-14.58959076 17.20557715 -13.8104986 18.35483009 -11 20 C-5.92974593 20.89928493 -2.25837324 20.80535887 2.125 18 C4.19618595 14.68610247 4.76001833 12.78224192 4.46875 8.9375 C3.58556388 5.28699736 2.120231 3.99694784 -1 2 C-5.88653442 0.95059671 -10.5088092 0.73887355 -14.1875 4.5 Z " fill="#FCFDFE" transform="translate(780,102)"/>
<path d="M0 0 C5.94 0 11.88 0 18 0 C18 6.27 18 12.54 18 19 C17.67 19 17.34 19 17 19 C17 15.7 17 12.4 17 9 C15.35 9 13.7 9 12 9 C11.01 8.34 10.02 7.68 9 7 C9.375 5.0625 9.375 5.0625 10 3 C10.66 2.67 11.32 2.34 12 2 C8.37 1.67 4.74 1.34 1 1 C1.33 2.65 1.66 4.3 2 6 C1.01 6.495 1.01 6.495 0 7 C0 4.69 0 2.38 0 0 Z " fill="#DCE2F2" transform="translate(665,115)"/>
<path d="M0 0 C0.33 0 0.66 0 1 0 C1.02464705 5.67830078 1.04283462 11.35657069 1.05493164 17.03491211 C1.05997256 18.96818585 1.06680519 20.90145576 1.07543945 22.8347168 C1.08751565 25.60726872 1.09323057 28.37977041 1.09765625 31.15234375 C1.10281754 32.02213364 1.10797882 32.89192352 1.11329651 33.78807068 C1.11349185 35.85905814 1.06208168 37.92994324 1 40 C0 41 0 41 -1.94946289 41.11352539 C-3.1984436 41.10567017 -3.1984436 41.10567017 -4.47265625 41.09765625 C-5.37177734 41.09443359 -6.27089844 41.09121094 -7.19726562 41.08789062 C-8.61555664 41.07532227 -8.61555664 41.07532227 -10.0625 41.0625 C-11.01189453 41.05798828 -11.96128906 41.05347656 -12.93945312 41.04882812 C-15.29303065 41.0370011 -17.64648477 41.02052025 -20 41 C-20 40.34 -20 39.68 -20 39 C-13.73 38.67 -7.46 38.34 -1 38 C-0.67 25.46 -0.34 12.92 0 0 Z " fill="#F0F3FB" transform="translate(729,169)"/>
<path d="M0 0 C3.3 0 6.6 0 10 0 C10 0.33 10 0.66 10 1 C7.03 1 4.06 1 1 1 C1.33 2.98 1.66 4.96 2 7 C2.598125 6.649375 3.19625 6.29875 3.8125 5.9375 C6 5 6 5 9 6 C9.5625 7.9375 9.5625 7.9375 10 10 C10.66 10.66 11.32 11.32 12 12 C8.04 12 4.08 12 0 12 C0 8.04 0 4.08 0 0 Z " fill="#DFE5F4" transform="translate(654,136)"/>
<path d="M0 0 C0.99 0 1.98 0 3 0 C3 5.61 3 11.22 3 17 C-0.3 16.67 -3.6 16.34 -7 16 C-5.68 15.01 -4.36 14.02 -3 13 C-2.67 12.34 -2.34 11.68 -2 11 C-1.01 11 -0.02 11 1 11 C1.33 7.7 1.66 4.4 2 1 C1.34 0.67 0.68 0.34 0 0 Z " fill="#DDE3F2" transform="translate(750,135)"/>
<path d="M0 0 C2.475 0.99 2.475 0.99 5 2 C2.15240273 5.04398329 0.30153445 6.88998401 -4.04296875 7.09765625 C-4.75066406 7.08605469 -5.45835937 7.07445312 -6.1875 7.0625 C-8.0746875 7.0315625 -8.0746875 7.0315625 -10 7 C-10 6.67 -10 6.34 -10 6 C-8.02 6 -6.04 6 -4 6 C-4 5.34 -4 4.68 -4 4 C-3.01 4 -2.02 4 -1 4 C-2.32 3.01 -3.64 2.02 -5 1 C-2.03 1.495 -2.03 1.495 1 2 C0.67 1.34 0.34 0.68 0 0 Z " fill="#E0E5F4" transform="translate(160,281)"/>
<path d="M0 0 C1.98 0.99 3.96 1.98 6 3 C5.67 3.99 5.34 4.98 5 6 C2.75 6.75 2.75 6.75 0 7 C-2.3125 5.0625 -2.3125 5.0625 -4 3 C-3.01 2.67 -2.02 2.34 -1 2 C-0.67 1.34 -0.34 0.68 0 0 Z " fill="#E2E8F7" transform="translate(148,280)"/>
<path d="M0 0 C2.97 0 5.94 0 9 0 C9 2.97 9 5.94 9 9 C8.67 9 8.34 9 8 9 C8 6.36 8 3.72 8 1 C7.4225 1.680625 6.845 2.36125 6.25 3.0625 C5.5075 3.701875 4.765 4.34125 4 5 C1.75 4.75 1.75 4.75 0 4 C0 2.68 0 1.36 0 0 Z " fill="#DDE3F2" transform="translate(689,196)"/>
<path d="M0 0 C4 1 4 1 4 1 Z M-3 1 C-2.01 1.33 -1.02 1.66 0 2 C-0.99 3.485 -0.99 3.485 -2 5 C-3.32 5 -4.64 5 -6 5 C-6 5.66 -6 6.32 -6 7 C-7.95927063 8.7143618 -9.95880212 10.38405168 -12 12 C-10.67667408 7.00076875 -7.39231845 3.60213075 -3 1 Z " fill="#DEE4F3" transform="translate(744,135)"/>
<path d="M0 0 C5.75 1.875 5.75 1.875 8 3 C8.33 2.34 8.66 1.68 9 1 C9.99 1.33 10.98 1.66 12 2 C12 2.66 12 3.32 12 4 C13.32 4.66 14.64 5.32 16 6 C9.79011871 5.55643705 5.39459439 4.08467498 0 1 C0 0.67 0 0.34 0 0 Z " fill="#DDE4F3" transform="translate(801,170)"/>
<path d="M0 0 C0 0.33 0 0.66 0 1 C-2.97 1.66 -5.94 2.32 -9 3 C-9 3.66 -9 4.32 -9 5 C-9.66 5 -10.32 5 -11 5 C-11.66 6.98 -12.32 8.96 -13 11 C-13.33 11 -13.66 11 -14 11 C-13.72139186 7.3780942 -13.42061885 4.68350563 -11.5 1.5625 C-7.77615754 -0.76490154 -4.27841547 -0.32910888 0 0 Z " fill="#DAE0F0" transform="translate(778,104)"/>
<path d="M0 0 C0 0.66 0 1.32 0 2 C-5.28497409 3.67357513 -5.28497409 3.67357513 -8 4 C-10.5 2.625 -10.5 2.625 -12 1 C-7.53763531 -0.80619523 -4.68965706 -1.11658501 0 0 Z M-14 2 C-12 3 -12 3 -12 3 Z " fill="#E2E8F7" transform="translate(250,80)"/>
<path d="M0 0 C-0.63808594 0.26554687 -1.27617187 0.53109375 -1.93359375 0.8046875 C-2.75988281 1.15789062 -3.58617187 1.51109375 -4.4375 1.875 C-5.26121094 2.22304687 -6.08492187 2.57109375 -6.93359375 2.9296875 C-9.15746715 3.8244937 -9.15746715 3.8244937 -10 6 C-10.66 6 -11.32 6 -12 6 C-11.77734375 4.11328125 -11.77734375 4.11328125 -11 2 C-9.00390625 0.91796875 -9.00390625 0.91796875 -6.5625 0.1875 C-5.75941406 -0.06644531 -4.95632812 -0.32039063 -4.12890625 -0.58203125 C-2 -1 -2 -1 0 0 Z " fill="#C4CAD8" transform="translate(204,127)"/>
<path d="M0 0 C1.63001953 0.01353516 1.63001953 0.01353516 3.29296875 0.02734375 C4.12441406 0.03894531 4.95585938 0.05054688 5.8125 0.0625 C5.8125 0.3925 5.8125 0.7225 5.8125 1.0625 C4.76449219 1.13597656 4.76449219 1.13597656 3.6953125 1.2109375 C2.78523437 1.28570312 1.87515625 1.36046875 0.9375 1.4375 C0.03257812 1.50710937 -0.87234375 1.57671875 -1.8046875 1.6484375 C-4.36691903 1.85818132 -4.36691903 1.85818132 -6.1875 4.0625 C-7.1775 3.0725 -8.1675 2.0825 -9.1875 1.0625 C-5.90230525 -0.03256492 -3.45086585 -0.03710608 0 0 Z " fill="#DBE1F0" transform="translate(540.1875,133.9375)"/>
<path d="M0 0 C1.65 0 3.3 0 5 0 C5 0.66 5 1.32 5 2 C5.66 2.33 6.32 2.66 7 3 C5.35 3.66 3.7 4.32 2 5 C2 4.34 2 3.68 2 3 C1.34 2.67 0.68 2.34 0 2 C0 1.34 0 0.68 0 0 Z " fill="#D8DEEC" transform="translate(147,54)"/>
</svg>
